<svg class="icon" style="width: 1em; height: 1em;vertical-align: middle;fill: currentColor;overflow: hidden;" viewBox="0 0 1024 1024" version="1.1" xmlns="http://www.w3.org/2000/svg" p-id="575"><path d="M526 448.1c115.4 0 212 9.4 299.4 28 49.9 12.5 93.5 21.8 127.8 37.5l-442.8-442.8-439.6 439.6c37.4-15.6 87.3-28.1 146.5-37.4 93.5-15.6 196.4-24.9 308.7-24.9z" fill="#FDD000" p-id="576"/><path d="M510.4 956.3l439.7-439.6c-62.4-6.2-146.6-6.2-252.6 3.1-115.4 9.4-190.2 18.7-233.8 34.3-37.4 12.5-59.2 31.2-53 46.8 0 6.2 3.1 15.6 9.3 21.8l12.5 9.3c15.6 12.5 24.9 15.6 28.1 18.8 15.6 12.5 18.7 28.1 15.5 43.6-6.2 24.9-53 49.9-146.5 78l180.8 183.9z" fill="#293C90" p-id="577"/></svg>
