<svg class="icon" style="width: 1em; height: 1em;vertical-align: middle;fill: currentColor;overflow: hidden;" viewBox="0 0 1024 1024" version="1.1" xmlns="http://www.w3.org/2000/svg" p-id="1297"><path d="M510.53226667 927.26272c-228.90837333 0-416.73045333-187.82208-416.73045334-416.73045333S281.62389333 93.80181333 510.53226667 93.80181333c228.90951111 0 416.73045333 187.82208 416.73045333 416.73045334 0 228.90951111-187.82208 416.73045333-416.73045333 416.73045333z m-76.30279112-742.48419555C287.49368889 219.99502222 178.90872889 352.05802667 178.90872889 513.46773333c0 108.58382222 52.82588445 208.36465778 140.86712889 269.99466667-35.21649778-55.76021333-46.95608889-176.08362667-46.95608889-176.08362667-5.86865778-196.62620445 129.12867555-255.32074667 129.12867556-255.32074666 73.36732445-41.08629333 114.45361778 5.86865778 114.45361777 5.86865778l32.28216889 32.28216888c26.41237333 32.28216889 61.62887111 14.67392 61.62887111 14.67392 73.36846222-35.21649778 32.28216889-120.32341333 32.28216889-120.32341333-41.08629333-99.78083555-140.86712889-105.65063111-208.36579556-99.78083555z m134.99733334 654.4429511c155.54104889-26.41237333 275.86446222-161.40970667 275.86446222-328.68920888 0-102.71516445-52.82588445-202.49486222-129.12867556-264.12373334 73.36846222 149.67011555 32.28216889 281.73198222 32.2821689 281.73198222-41.08515555 140.86712889-146.73578667 155.54104889-146.73578667 155.5410489-73.36846222 20.54257778-99.78083555-35.21649778-99.78083556-35.21649778-20.54257778-26.41351111-46.95608889-26.41351111-46.95608889-26.41351112-61.62773333-5.86865778-73.36732445 52.82588445-73.36732444 52.82588445 0 5.86865778-5.86979555 14.67278222-5.86979556 20.54257778 5.87093333 61.62887111 41.08629333 99.78083555 41.08629334 99.78083555 46.95608889 44.02062222 120.32341333 49.89041778 152.60558222 44.02062222zM422.49102222 510.53226667l93.91104 93.91217778 93.91217778-93.91217778-93.91217778-99.77969778-93.91104 99.77969778z" fill="#A40000" p-id="1298"></path></svg>