<svg class="icon" style="width: 1em; height: 1em;vertical-align: middle;fill: currentColor;overflow: hidden;" viewBox="0 0 1024 1024" version="1.1" xmlns="http://www.w3.org/2000/svg" p-id="644"><path d="M334.44977778 170.10460445c67.49866667 23.47804445 132.06186667 90.97671111 132.06186667 167.27950222v586.94428444c14.67392 0 32.28216889 2.93546667 46.95608888 2.93546667s32.28103111 0 46.95608889-2.93546667V337.38410667c0-76.30279111 64.5632-143.80145778 126.19207111-167.27950222 8.80412445-2.93432889 11.73845333-8.80412445 11.73845334-14.67278223 0-8.80412445-2.93432889-14.67392-11.73845334-20.54371555-52.82474667-23.47804445-111.51928889-38.15082667-173.14816-38.15082667-64.56433778 0-123.25888 14.67278222-173.14929778 38.15082667-8.80412445 2.93546667-11.73845333 8.80412445-11.73845333 20.54371555-5.86979555 8.80412445-2.93546667 11.73845333 5.86979556 14.67278223z" fill="#D7000F" p-id="645"></path><path d="M401.94844445 912.5888V372.60174222c0-58.69454222-32.28216889-105.64949333-79.23825778-126.19320889v633.90037334c23.47804445 14.67392 49.89155555 23.47804445 79.23825778 32.28216888z m296.40590222-32.28103111V246.40739555c-46.95608889 20.54371555-79.23712 70.43413333-79.23712 126.1932089v539.98933333c26.41237333-8.80412445 55.76021333-17.60824889 79.23712-32.28216889zM181.84419555 437.16494222c2.93432889 0 8.80412445 2.93432889 8.80412445 8.80412445 8.80412445 23.47690667 26.41237333 44.02062222 52.82474667 44.02062222 8.80412445 0 14.67392-2.93546667 20.54257778-8.80412444V184.77852445C161.30048 261.08131555 96.73728 378.4704 96.73728 513.46773333s64.5632 252.38528 161.40970667 328.68807112V545.74876445c-2.93546667-2.93432889-11.73959111-8.80412445-20.54371556-8.80412445-23.47804445 0-44.02062222 20.54371555-52.82474666 44.02062222 0 2.93546667-2.93546667 8.80526222-8.80412445 8.80526223s-2.93546667-2.93546667-8.80412445-2.93546667c-14.67392-20.54257778-23.47804445-44.02062222-23.47804444-70.43299556s8.80412445-52.82474667 23.47804444-70.43299555c8.80412445-5.86979555 11.73845333-8.80412445 14.67392-8.80412445z m713.13635556 96.84536889c-23.47690667 0-44.02062222 20.54371555-52.82474666 44.02062222 0 2.93546667-2.93432889 8.80412445-8.80412445 8.80412445s-2.93546667-2.93432889-8.80412445-2.93432889c-11.73845333-20.54257778-20.54257778-44.02062222-20.54257777-70.43299556s8.80412445-52.82588445 23.47804444-70.43413333c0 0 2.93432889-2.93432889 8.80412445-2.93432889 2.93432889 0 8.80412445 2.93546667 8.80412444 8.80412444 8.80412445 23.47804445 26.41237333 44.02062222 52.82474667 44.02062223 11.73845333 0 23.47804445-8.80412445 26.41237333-20.54257778-11.73845333-114.45475555-70.43299555-214.23445333-158.47537778-281.73312v654.44295111c82.17258667-64.56433778 137.9328-158.47537778 155.54104889-264.12487111v-14.67392c-5.87093333-23.47804445-14.67392-32.28216889-26.41237333-32.28216889z" fill="#D7000F" p-id="646"></path></svg>