<svg class="icon" style="width: 1em; height: 1em;vertical-align: middle;fill: currentColor;overflow: hidden;" viewBox="0 0 1024 1024" version="1.1" xmlns="http://www.w3.org/2000/svg" p-id="776"><path d="M84.1728 320.78506667h192.59093333s35.7664 0 44.02133334 11.0048h-35.76746667v11.0048h55.02613333s8.25386667 5.50293333 8.25386667 11.00586666h-66.03093333v11.0048h71.53386666s8.25386667 5.50293333 5.50186667 13.7568H144.7008v11.0048h222.85546667s2.752 8.25386667 2.752 11.00586667H144.7008v11.0048h225.60746667s2.752 8.25386667-2.752 11.0048l-222.85546667 2.752v11.0048l220.10453333-2.752s0 8.25493333-5.50293333 11.00586667l-214.6016 2.752v16.50666666l209.09866667-2.75093333s0 11.0048-8.2528 13.7568H144.7008v11.0048l181.58613333-2.752s-5.50186667 13.75786667-30.26453333 13.75786667H263.008v11.0048h55.02613333s24.7616 0 24.7616 11.0048l-82.53866666 2.752v11.0048h96.29546666s8.25386667 8.25386667 8.25386667 11.0048l-222.85546667 2.752v13.7568l225.6064-2.752s8.25386667 5.50293333 8.25386667 13.7568l-228.35733333 2.752v11.0048H386.816s2.752 2.75093333 2.752 11.0048l-242.1152 2.752v11.0048h242.11413333s2.752 5.50186667 0 11.0048l-242.11413333 2.752v11.0048H386.816s2.752 8.25386667-2.752 13.7568H147.4528v8.25386666h231.10933333s0 11.0048-5.50293333 11.0048h-79.78666667v11.0048h71.5328s-5.50293333 11.00586667-11.0048 13.7568h-63.28v11.0048h41.26933334s-5.50293333 13.7568-60.52906667 11.00586667H89.67573333V320.78506667h-5.504z" fill="#FCEA00" p-id="777"></path><path d="M576.656 505.12213333h52.27413333v22.0096s27.5136-27.51253333 52.2752-24.7616c0 0 55.02613333-11.0048 68.78186667 55.02613334l2.752 140.3168h-52.2752v-126.56s-16.50773333-35.76746667-52.27413333-13.7568c0 0-16.50773333 5.50293333-13.7568 49.5232v90.7936h-52.2752l-5.50186667-192.59093334z m187.088-74.28586666h46.77226667l2.752 143.06773333 57.77706666-74.2848h60.528l-55.02613333 74.2848 63.28 121.05706667h-57.77706667l-44.02133333-77.03573334-24.7616 33.01546667v44.02133333h-52.27413333l2.752-264.12586666zM560.14933333 675.7024l-2.752-123.808c-2.752-66.032-110.05226667-44.02133333-110.05226666-44.02133333-57.77706667 8.25386667-52.27413333 60.52906667-52.27413334 60.52906666l55.02613334 2.75093334c2.752-30.26453333 46.77226667-22.01066667 46.77226666-22.01066667 30.26346667 24.7616-5.504 30.26453333-5.504 30.26453333-16.50666667 0-71.5328 16.50773333-71.5328 16.50773334-33.01546667 13.7568-30.26453333 46.77226667-30.26453333 46.77226666 0 55.02613333 46.77226667 57.77706667 46.77226667 57.77706667 44.02133333 11.00586667 71.53386667-19.25866667 71.53386666-19.25866667l2.752 19.25866667 55.02506667-2.752-5.50186667-22.0096z m-52.2752-46.77226667s-5.50293333 22.01066667-24.7616 24.7616c0 0-33.01546667 22.01066667-44.02133333-5.50186666 0 0-5.50186667-16.50773333 11.00586667-22.01066667 2.752 0 55.02613333-13.7568 57.77706666-22.01066667v24.7616z" fill="#6B1685" p-id="778"></path></svg>