<svg class="icon" style="width: 1em; height: 1em;vertical-align: middle;fill: currentColor;overflow: hidden;" viewBox="0 0 1024 1024" version="1.1" xmlns="http://www.w3.org/2000/svg" p-id="702"><path d="M889.19608889 558.60337778c-72.81777778-96.11946667-273.79484445-116.50844445-273.79484444-116.50844445l81.5559111-49.51608888L516.36906667 293.54666667l-180.58808889 90.29404444 145.63555555 81.55591111c235.9296-5.82542222 302.92195555 122.33386667 302.92195556 122.33386667C842.59271111 774.144 504.71822222 785.79484445 504.71822222 785.79484445c-195.15164445 23.30168889-285.44568889-148.54826667-285.44568889-148.54826667l-116.50844444 5.82542222c139.81013333 279.62026667 640.79644445 157.2864 640.79644444 157.2864 256.31857778-84.46862222 145.63555555-241.75502222 145.63555556-241.75502222z m-375.73973334-116.50844445l-81.5559111-40.77795555 75.73048888-55.34151111 81.55591112 43.69066666-75.7304889 52.4288z" fill="#1D2088" p-id="703"></path><path d="M528.01991111 203.25262222c-131.072-8.73813333-387.39057778 5.82542222-419.4304 163.11182223C82.37511111 491.61102222 271.70133333 564.4288 405.68604445 578.99235555c-26.2144 17.47626667-55.34151111 32.03982222-81.55591112 49.5160889 64.07964445 34.95253333 122.33386667 72.81777778 180.58808889 104.8576l163.11182223-96.11946667-163.11182223-84.46862223c-32.03982222-5.82542222-64.07964445 5.82542222-81.55591111 5.82542223-90.29404445 0-221.36604445-99.03217778-186.41351111-189.32622223C303.74115555 174.12551111 752.29866667 203.25262222 795.98933333 395.49155555h125.24657778c-55.34151111-154.37368889-267.96942222-183.5008-393.216-192.23893333zM510.54364445 584.81777778l81.5559111 43.69066667-84.46862222 43.69066666-75.73048888-43.69066666 78.6432-43.69066667z" fill="#5AA572" p-id="704"></path></svg>