<svg class="icon" style="width: 1em; height: 1em;vertical-align: middle;fill: currentColor;overflow: hidden;" viewBox="0 0 1024 1024" version="1.1" xmlns="http://www.w3.org/2000/svg" p-id="746"><path d="M290.42915555 481.18556445h126.19093334v64.5632H290.42915555V736.50631111h205.43146667v-64.56433778h-140.86826667v-61.62887111h126.1932089V416.62122667H354.99235555v-64.5632h140.8671289V287.49368889H290.42801778z" fill="#C6000B" p-id="747"></path><path d="M510.53226667 96.73728c-228.90837333 0-413.79498667 184.88661333-413.79498667 413.79498667S284.55822222 924.32839111 510.53226667 927.26272c228.90951111 0 416.73045333-187.82208 416.73045333-416.73045333S742.37724445 96.73728 510.53226667 96.73728z m2.93546666 765.96224c-193.69187555 0-352.16725333-158.47537778-352.16725333-352.16725333S319.77585778 158.36728889 513.46773333 158.36728889s352.16497778 158.47424 352.16497778 352.16497778-158.47424 352.16725333-352.16497778 352.16725333z" fill="#C6000B" p-id="748"></path><path d="M528.14051555 352.05802667h143.80145778v64.5632H545.74876445v193.69187555h126.19320888v64.56433778H528.14051555v61.62887111H736.50631111V542.81443555H610.31310222v-64.5632H736.50631111V287.49368889H528.14051555z" fill="#C6000B" p-id="749"></path></svg>