<svg class="icon" style="width: 1em; height: 1em;vertical-align: middle;fill: currentColor;overflow: hidden;" viewBox="0 0 1024 1024" version="1.1" xmlns="http://www.w3.org/2000/svg" p-id="629"><path d="M892.04622222 745.31043555c-61.62887111-390.31808 26.41237333-598.68273778 35.21649778-616.29212444 2.93546667-20.54257778-11.73845333-14.67278222-11.73845333-14.67278222H765.85301333c-8.80412445 0-11.73845333 14.67278222-11.73845333 14.67278222l-8.80412445 23.47804444c-11.73845333 44.02062222-20.54257778 82.17258667-26.41237333 123.25888H299.23214222v-2.93546666s-11.73845333-70.43299555-23.47690667-111.51928889c-11.73959111-38.15082667-20.54371555-44.02062222-20.54371555-44.02062222H117.27985778c-26.41237333 0-20.54257778 14.67392-20.54257778 14.67392 14.67278222 38.15082667 35.21649778 146.73578667 35.21649778 146.73578667 61.62887111 390.31808-26.41237333 598.68273778-35.21649778 616.29212444-2.93546667 20.54257778 11.73845333 14.67278222 11.73845333 14.67278222h149.67125334c8.80412445 0 11.73845333-14.67278222 11.73845333-14.67278222l8.80412445-23.47804444c11.73845333-38.15196445 20.54257778-82.17258667 26.41237333-117.38908445h419.66592v2.93546667s11.73845333 70.43299555 23.47690667 111.51815111c8.80412445 38.15196445 20.54371555 44.02062222 20.54371555 44.02062222h137.93166222c26.41237333 0 20.54257778-14.67278222 20.54257778-14.67278222-17.60824889-46.95608889-35.21649778-152.60558222-35.21649778-152.60558223zM325.64565333 592.70485333c2.93432889-61.62887111 0-117.38908445 0-170.21383111h381.51281778c-2.93432889 61.62887111-2.93432889 117.38908445 0 170.21383111H325.64565333z" fill="#0066B1" p-id="630"></path><path d="M595.63918222 768.78848v-23.47804445H437.16494222s2.93432889 123.25774222-11.73959111 146.73578667c0 0-2.93432889 8.80412445 8.80412444 11.73959111s173.14929778 0 173.14929778 0 8.80412445-2.93546667 0-20.54371555c-5.86979555-14.67392-11.73959111-38.15082667-11.73959111-114.45361778z m-161.40970667-495.96871111h158.47537778v-17.60824889c0-79.23712 2.93546667-102.71516445 11.73845334-123.25774222 8.80412445-20.54371555 0-20.54371555 0-20.54371556s-161.40970667-2.93432889-173.14816 0c-11.73845333 2.93546667-8.80412445 11.73959111-8.80412445 11.73959111 17.60824889 26.41237333 11.73845333 149.67011555 11.73845333 149.67011556z" fill="#0066B1" p-id="631"></path></svg>