<svg class="icon" style="width: 1em; height: 1em;vertical-align: middle;fill: currentColor;overflow: hidden;" viewBox="0 0 1024 1024" version="1.1" xmlns="http://www.w3.org/2000/svg" p-id="673"><path d="M927.26272 492.92401778C924.32839111 346.18823111 830.41848889 246.40853333 830.41848889 246.40853333 686.61475555 79.12903111 504.66360889 93.80181333 504.66360889 93.80181333c-190.75754667-8.80412445-314.01528889 140.86712889-311.07982222 143.80145778-82.17372445 99.78083555-90.97671111 187.82208-90.97671112 187.82208-32.28216889 152.60558222 41.08515555 281.73312 41.08515556 281.73312 55.76021333 99.78083555 114.45475555 146.73692445 211.30012444 190.75754667s240.64682667 38.15082667 331.62353778-8.80412445c88.04124445-46.95608889 143.80145778-96.84650667 196.62620445-190.75754666 52.82474667-93.91104 44.02062222-205.43032889 44.02062222-205.43032889zM466.51164445 833.35168S313.90606222 824.54755555 231.73461333 677.81176889c0 0-73.36846222-102.71516445-41.08629333-231.84270222 29.34670222-129.12753778 99.77969778-181.95342222 114.45361778-190.75754667 14.67392-14.67278222 102.71516445-70.43299555 167.27950222-67.49866667v155.54104889h-67.49866667s-88.04124445 2.93432889-90.97671111 102.71516445v140.86599111s2.93546667 88.04124445 90.97671111 96.84650667h61.62887112v149.67011555z m-46.9560889-240.64682667s-14.67278222 2.93546667-17.6071111-14.67392V440.09927111s0-14.67392 11.73845333-14.67392h190.75640889s14.67392-2.93432889 17.60824888 14.67392v132.06186667s2.93546667 23.47804445-11.73845333 17.60938667l-190.75640889 2.93432888z m366.84231112 99.78083556c-61.62887111 90.97671111-176.08248889 137.93166222-231.84270222 140.86599111V680.74609778h73.36732444s76.30279111-14.67278222 82.17258666-96.84536889V422.49102222s-11.73959111-82.17258667-99.78083555-85.10691555h-55.75907555V184.77852445s96.84536889 8.80412445 173.14702222 82.17258666c76.30392889 70.43299555 99.78197333 143.80145778 105.65063111 181.95342222 8.80412445 38.14968889 17.60824889 146.73464889-46.95608889 243.58115556z" fill="#B81C22" p-id="674"></path></svg>