<svg class="icon" style="width: 1em; height: 1em;vertical-align: middle;fill: currentColor;overflow: hidden;" viewBox="0 0 1024 1024" version="1.1" xmlns="http://www.w3.org/2000/svg" p-id="687"><path d="M481.18556445 354.99235555h46.95608888c8.80298667 0 23.47690667 2.93546667 26.41237334-8.80412444 2.93432889-2.93546667 2.93432889-8.80412445 2.93432888-8.80412444 2.93546667-5.86979555 0-17.60824889 0-23.47804445V158.36728889c0-5.86979555 0-58.69454222-2.93546666-58.69454222h-88.04124444c-2.93546667 0-2.93546667 26.41237333-2.93546667 29.34670222v123.25888c0 29.34670222-2.93432889 58.69454222 0 88.04124444 2.93546667 5.86979555 8.80526222 11.73959111 17.60938667 14.67392z" fill="#009882" p-id="688"></path><path d="M613.24743111 105.54026667v129.12867555c0 41.08515555 5.87093333 82.17258667 0 123.25774223-2.93432889 26.41237333-64.5632 8.80412445-82.17144889 14.67392-17.60824889 5.86979555-11.73959111 41.08515555-11.73959111 52.82474666v82.17258667c8.80412445-14.67392 29.34784-8.80412445 44.02062222-8.80412445 23.47804445 0 49.89155555 2.93546667 73.36846222 0 8.80412445-2.93546667 14.67392-8.80412445 14.67392-17.60824888-2.93546667-2.93546667 0-29.34784 0-32.2821689V211.19089778c114.45361778 52.82474667 190.75640889 173.14816 190.7564089 299.34136889 0 161.40970667-123.25774222 305.21116445-284.6674489 325.75488V651.39939555c2.93546667-8.80412445 0-2.93546667 5.86979556-5.86979555 8.80412445-2.93546667 99.77969778 11.73959111 88.04124444-17.60824889-5.86979555-8.80412445 0-32.28216889 0-41.08515556v-88.04238222c0 23.47804445-26.41237333 17.60824889-41.08515555 17.60824889-23.47918222 0-46.95608889-2.93546667-70.43413333 0-23.47804445 0-17.60824889 29.34670222-17.60824889 44.02062223v82.17258666H507.5968c-5.86979555-2.93546667-2.93546667 0-2.93546667-8.80412444v-67.49866667c0-11.73845333 2.93546667-26.41237333 0-41.08515555-2.93432889-20.54371555-35.21649778-14.67505778-49.88928-14.67505778-20.54371555 0-46.95608889 5.86979555-67.49866666 0-8.80412445-2.93432889-11.73959111-8.80412445-11.73959112-17.60824889v96.84650667c0 11.73845333-2.93432889 23.47690667 0 32.2810311 2.93546667 17.60938667 29.34784 14.67392 44.02062223 14.67392h44.02062222c8.80526222 0 5.87093333 8.80412445 5.87093333 17.6082489V827.48302222c-161.40970667-20.54371555-284.66858667-164.34517333-284.66858666-325.75488 0-126.19320889 76.30279111-246.51662222 190.75640888-299.34136889v272.93013334c0 11.73845333 5.87093333 17.60711111 17.60938667 17.60711111h55.75907556c14.67392 0 49.89041778-8.80412445 58.69454222 8.80412444v-93.91104c0-20.54257778 5.86979555-41.08515555-20.54257778-44.02062222h-44.02062222c-29.34784 0-26.41351111-11.73845333-26.41351111-38.15082667v-225.97404444c-193.69073778 46.95608889-328.68807111 231.84270222-314.01528889 431.40437333 17.60938667 237.71249778 234.78044445 416.73045333 472.49180445 384.44828445 211.30012445-29.34784 369.77436445-223.03857778 358.0359111-437.27303112C915.52426667 308.03740445 786.39672889 149.56088889 613.24743111 105.54026667z" fill="#009882" p-id="689"></path></svg>