<svg class="icon" style="width: 1em; height: 1em;vertical-align: middle;fill: currentColor;overflow: hidden;" viewBox="0 0 1024 1024" version="1.1" xmlns="http://www.w3.org/2000/svg" p-id="659"><path d="M636.72547555 900.85034667l52.82474667-231.84270222h120.32455111l14.67278222-79.23712H654.33372445L601.50897778 824.54755555H290.42915555l8.80298667-41.08515555h272.93013333l52.82474667-234.77816889h208.36465778l14.67392-73.36846222H589.77052445l-49.89155556 231.84270222H313.9072l8.80412445-35.21649778h179.01795555l41.08629333-196.62620444h-179.01795555l8.80412444-41.08515556h272.93013333l32.28103112-120.32455111h205.43032888l14.67392-73.36732444H642.59413333l-35.21649778 117.38794667H390.20885333l11.73959112-44.02062223h176.08248888L613.24743111 199.45244445h293.47271111l14.67392-79.23825778H572.16227555l-29.34784 117.38908444h-179.01795555L310.97173333 472.38257778h-179.01795555l-41.08629333 193.69187555h187.82208l-46.9560889 234.77703112h404.992zM158.36728889 586.83505778l8.80412444-38.15082667h134.99733334l-11.73959112 41.08515556H158.36728889v-2.93432889z m187.82208 0l8.80412444-41.08515556h134.99733334l-8.80412445 41.08515556h-134.99733333z" fill="#108C3E" p-id="660"></path></svg>