<svg class="icon" style="width: 1em; height: 1em;vertical-align: middle;fill: currentColor;overflow: hidden;" viewBox="0 0 1024 1024" version="1.1" xmlns="http://www.w3.org/2000/svg" p-id="732"><path d="M484.11989333 114.34552889s73.36846222-55.76021333 202.496-14.67392c0 0 41.08515555 14.67392 90.97671112 58.69454222l149.67011555 161.40970667-82.17144889 82.17258667-231.84384-237.71249778c0-5.87093333-38.15082667-49.89155555-129.1264-49.89155556zM818.67889778 422.49102222l-96.84650667 90.97671111s-14.67392 23.47690667-26.41237333 0L516.4032 340.31843555s-14.67392-23.47690667-26.41237333-5.86865777l-179.01795556 181.95228444s-14.67392 17.60824889 5.86979556 26.41237333l173.14702222 173.14816s14.67505778 23.47804445 26.41351111 5.87093334l179.01795555-181.95342222s5.86979555-14.67392 32.2821689-14.67392h181.95342222s8.80298667 187.82208-132.06300445 302.27683555c0 0-181.95342222 181.95228445-440.20849777 73.36732445 0 0-246.51662222-88.04124445-243.58229334-402.05653334 0 0 5.86979555-211.30012445 202.496-325.75374222 0 0 140.86712889-105.65063111 252.38641778-26.41237333l269.99466666 275.86332444z" fill="#003B90" p-id="733"></path></svg>