<svg class="icon" style="width: 1em; height: 1em;vertical-align: middle;fill: currentColor;overflow: hidden;" viewBox="0 0 1024 1024" version="1.1" xmlns="http://www.w3.org/2000/svg" p-id="590"><path d="M636.72547555 903.78581333l52.82474667-231.84384h123.25888l17.60824889-82.17144888H663.13784889L610.31310222 821.61208889h-314.01528889l11.73959112-41.08515556h272.92899555l52.82474667-231.84497778h208.36465778l17.60824888-76.30165333H604.44444445l-52.82474667 231.84270223h-225.97404445l11.73959112-35.21649778h173.14702222l41.08629333-196.62620445h-179.01795555l11.73845333-41.08629333h272.93013333l29.34670222-123.25774222h202.496l17.60824889-76.30279112H651.39939555l-35.21649777 117.38794667H396.07864889l11.73845333-46.95608889h179.01795556l35.21649777-111.51815111h290.53838223l17.60824889-76.30279111H586.83505778L557.48835555 231.73461333H378.4704l-52.82474667 237.71136h-184.88888888l-41.08515556 196.62734222h184.88775111l-46.95608889 231.84270223h399.12220444v5.86979555zM158.36728889 595.63804445l11.73845333-41.08515556h134.99733333l-11.73845333 41.08515556H158.36728889z m187.82208 0l11.73845333-41.08515556h134.99733333l-5.86865777 41.08515556h-140.86826667z" fill="#108C3E" p-id="591"></path></svg>