<svg class="icon" style="width: 1em; height: 1em;vertical-align: middle;fill: currentColor;overflow: hidden;" viewBox="0 0 1024 1024" version="1.1" xmlns="http://www.w3.org/2000/svg" p-id="1145"><path d="M765.85301333 745.31043555c-49.89041778 0-102.71516445 5.86979555-152.60558222 5.86979556-32.28103111 143.80145778-311.07982222 102.71516445-278.79765333-79.23825778 14.67278222-105.64949333 164.34403555-152.60558222 252.38528-73.36732444 17.60824889 23.47690667 29.34784 41.08515555 38.15196444 88.04124444 46.95608889 0 102.71516445-5.86979555 149.67011556-5.86979555 0-231.84270222-261.18940445-349.23178667-454.88128-237.71249778-190.75754667 105.65063111-167.27950222 437.27416889 32.28216889 516.51128889v5.86979556c-105.65063111 0-228.90951111-85.10691555-252.38641778-184.88775112V246.40853333c85.10691555-61.63000889 181.95342222-129.12867555 264.12487111-184.88888888 5.86979555 0 5.86979555 5.87093333 8.80412445 5.87093333-5.86979555 79.23712 0 214.23331555 5.86979555 311.07982222 55.75907555-49.89155555 88.04124445-105.65063111 181.95342222-126.19320889 61.62773333-14.67392 117.38794667-5.86979555 152.60444445 8.80412444 269.99466667 93.91104 287.60291555 443.14282667 55.76021333 563.46624-5.86979555 0-17.60824889 8.80412445-23.47804445 14.67392 0 0 5.86979555-8.80412445 8.80412445-17.60824888-2.93546667-23.47804445 2.93546667-52.82474667 11.73845333-76.30279112z" fill="#1D2088" p-id="1146"></path></svg>