<svg class="icon" style="width: 1em; height: 1em;vertical-align: middle;fill: currentColor;overflow: hidden;" viewBox="0 0 1024 1024" version="1.1" xmlns="http://www.w3.org/2000/svg" p-id="604"><path d="M293.36348445 316.84152889h-93.91217778l-102.71402667 184.88661333h90.97671111z" fill="#05348B" p-id="605"></path><path d="M308.03740445 316.84152889h90.9767111l105.64949334 184.88661333h-90.97671111z" fill="#25B7AB" p-id="606"></path><path d="M504.66360889 516.40206222h-90.97671111l-105.64949333 187.82208h90.9767111z" fill="#05348B" p-id="607"></path><path d="M96.73728 516.40206222h90.97671111l105.64949334 187.82208h-93.91217778z" fill="#25B7AB" p-id="608"></path><path d="M715.96259555 316.84152889h-90.9767111L516.4032 501.72814222h93.91217778z" fill="#05348B" p-id="609"></path><path d="M730.63651555 316.84152889h93.91217778l102.71402667 184.88661333h-90.97671111z" fill="#25B7AB" p-id="610"></path><path d="M927.26272 516.40206222h-90.97671111l-105.64949334 187.82208h93.91217778z" fill="#05348B" p-id="611"></path><path d="M516.40206222 516.40206222h93.91217778l105.64835555 187.82208h-90.9767111z" fill="#25B7AB" p-id="612"></path><path d="M504.66360889 114.34552889h-90.97671111l-105.64949333 184.88661333h90.9767111z" fill="#05348B" p-id="613"></path><path d="M516.40206222 114.34552889h93.91217778l105.64835555 184.88661333h-90.9767111z" fill="#25B7AB" p-id="614"></path><path d="M516.40206222 906.72014222h93.91217778l105.64835555-181.95342222h-90.9767111z" fill="#05348B" p-id="615"></path><path d="M504.66360889 906.72014222h-90.97671111l-105.64949333-181.95342222h90.9767111z" fill="#25B7AB" p-id="616"></path></svg>