<svg class="icon" style="width: 1em; height: 1em;vertical-align: middle;fill: currentColor;overflow: hidden;" viewBox="0 0 1024 1024" version="1.1" xmlns="http://www.w3.org/2000/svg" p-id="868"><path d="M927.26272 513.46773333c0-105.65063111-143.80145778-193.69187555-322.81941333-193.69187555-143.80145778 0-264.12373333 55.75907555-305.21116445 132.06186667-2.93432889 5.87093333-5.86865778 14.67392-5.86865777 20.54371555 0 17.60824889 11.73845333 38.15082667 32.28216888 46.95608889l161.40970667 93.90990222c8.80412445 2.93546667 17.60824889 5.87093333 29.34670222 5.87093334 8.80412445 0 20.54257778-2.93546667 29.34670223-5.87093334l155.54104888-90.97671111c8.80412445-5.86865778 14.67278222-14.67278222 14.67278222-26.41123555s-5.86865778-17.60824889-14.67278222-26.41351112l-55.76021333-35.21649778-129.1264 76.30279112-96.84536889-55.75907556c38.15082667-35.21649778 105.64949333-55.76021333 187.82208-55.76021333 117.38908445 0 217.16878222 49.89155555 217.16878222 111.51928889-2.93546667 96.84650667-143.80145778 173.14929778-316.94961778 164.34517333-173.14816-2.93546667-311.07982222-88.04124445-305.21116444-184.88888889 0-129.1264 170.21383111-228.90723555 372.70983111-228.90723556 17.60824889 0 38.15082667 0 52.82474667 2.93546667-41.08515555-14.67392-93.91104-26.41351111-152.60558222-26.41351111-46.95608889 0-88.04124445 5.86979555-126.19320889 14.67392-146.73578667 49.89041778-249.45095111 143.80145778-249.45095111 252.38641778 0 146.73578667 187.82208 267.0592 416.73045333 267.0592 225.97404445 8.80412445 410.86065778-108.58496 410.86065778-258.25507556z" fill="#004186" p-id="869"></path></svg>