<svg class="icon" style="width: 1em; height: 1em;vertical-align: middle;fill: currentColor;overflow: hidden;" viewBox="0 0 1024 1024" version="1.1" xmlns="http://www.w3.org/2000/svg" p-id="1341"><path d="M507.59793778 99.67160889c-228.90837333 0-410.86065778 184.88775111-410.86065778 410.86065778 0 228.90951111 184.88661333 410.86179555 410.86065778 410.86179555 108.58496 0 181.95342222-38.15196445 214.23445333-58.69454222 79.23712-49.89155555 123.25888-117.38908445 111.51928889-184.88775111-8.80412445-58.69454222-64.5632-102.71516445-132.06186667-123.25774222-5.86979555 0-14.67392-5.87093333-20.54371555-5.87093334 35.21649778-20.54257778 52.82588445-44.02062222 58.69454222-79.23712 8.80412445-73.36732445-73.36732445-146.73578667-184.88661333-161.40856888-102.71630222-14.67392-184.88888889-5.87093333-214.23559112-5.87093334v132.06300444c58.69454222-8.80412445 137.9328-8.80412445 199.56167112 0 52.82474667 8.80412445 88.04124445 29.34784 93.91104 52.82588445 0 5.86865778 0 14.67278222-5.86979556 20.54257778-14.67392 20.54257778-38.15082667 20.54257778-58.69454222 14.67392-67.49866667-8.80412445-146.73578667-8.80412445-225.97404444 0v132.06186667c73.36846222-8.80412445 196.62734222-8.80412445 255.32188444 0 52.82474667 8.80412445 88.04124445 35.21649778 93.91104 64.56433777 0 14.67392-5.86979555 23.47804445-14.67392 38.15082667-20.54257778 23.47804445-79.23712 49.89155555-161.40970667 49.89155556-167.27950222 0-302.27683555-137.9328-302.27683555-302.27683556 0-167.27950222 137.9328-302.27683555 302.27683555-302.27683556s302.27683555 137.9328 302.27683556 302.27683556v35.21649778c20.54257778 8.80412445 52.82474667 35.21649778 93.91104 79.23712 8.80412445-35.21649778 14.67278222-73.36846222 14.67278222-111.51928889-5.86865778-225.97404445-190.75640889-407.92632889-419.66478222-407.92632889z" fill="#E50012" p-id="1342"></path></svg>