<svg class="icon" style="width: 1em; height: 1em;vertical-align: middle;fill: currentColor;overflow: hidden;" viewBox="0 0 1024 1024" version="1.1" xmlns="http://www.w3.org/2000/svg" p-id="1205"><path d="M894.98168889 272.81976889l-32.28216889-41.08515556s-114.45475555 20.54257778-111.51928889-46.95608888c0 0 8.80412445-46.95608889-76.30279111-26.41237334 0 0-20.54371555-20.54257778-20.54371555-26.41237333 0 0 2.93546667-26.41237333-82.1714489-11.73959111 0 0-134.99733333 14.67392-281.73425777 181.95342222 0 0-146.73578667 123.25774222-146.73578667-2.93546667 0 0-79.23712 82.17258667-35.21649778 146.73692445 0 0 46.95608889 67.49866667 143.80145778 11.73845333 0 0-26.41237333 225.97404445 123.25774222 346.29745778 0 0 158.47537778 146.73578667 337.49333334 96.84536889 0 0 149.67125333-32.28216889 211.30012444-181.95342222 0 0-26.41237333 26.41351111-41.08515556 23.47918222 0 0 41.08515555-46.95608889 44.02062223-70.43413334 0 0 0-26.41237333-23.47804445 14.67392 0 0 2.93432889-26.41237333-11.73959111-14.67392 0 0-79.23712 90.97671111-114.45361777 99.78083556 0 0-255.32074667 149.67125333-369.77550223-149.67125334 0 0-46.95608889-143.80032 67.49866667-249.4509511 114.45475555-108.58496 231.84270222-96.84536889 334.55900444-20.54257778 0 0 52.82474667-58.69454222 76.30165334-46.95608889-2.93432889-2.93546667 17.60938667-14.67392 8.80526222-32.28216889z" fill="#E60012" p-id="1206"></path><path d="M542.81443555 451.83772445h249.45095112v190.75754666H542.81443555z" fill="#E60012" p-id="1207"></path></svg>