<svg class="icon" style="width: 1em; height: 1em;vertical-align: middle;fill: currentColor;overflow: hidden;" viewBox="0 0 1024 1024" version="1.1" xmlns="http://www.w3.org/2000/svg" p-id="942"><path d="M513.46773333 319.77585778c32.28103111 0 64.5632 5.86979555 90.97671112 20.54257777 2.93432889 0 5.86865778 2.93546667 5.86865777 5.86979556v161.40970667c0 14.67392-8.80412445 17.60824889-17.60824889 5.86979555l-70.43299555-70.43413333c-2.93546667-2.93432889-2.93546667-2.93432889-8.80412445 0-61.63000889 61.63000889-120.32341333 117.38908445-181.95342222 176.08362667-2.93546667 2.93546667-14.67278222 2.93546667-17.60824889-2.93546667-8.80412445-26.41123555-17.60824889-52.82360889-17.60824889-85.10577778-5.86979555-117.38908445 96.84650667-211.30012445 217.16992-211.30012444z m170.21383112-108.58496c-26.41237333-64.5632-96.84650667-105.64949333-176.08362667-105.64949333-108.58496 0-196.62620445 85.10577778-196.62620445 187.82208 0 8.80412445 0 23.47804445 2.93546667 32.28216888 2.93432889 14.67278222 5.86865778 14.67278222 17.60711111 5.86865778 46.95608889-44.02062222 111.51928889-70.43299555 179.01795556-70.43299556 20.54371555 0 44.02062222 2.93546667 64.56433778 5.86979556 8.80412445 2.93432889 8.80412445 2.93432889 17.60824888-2.93546666 26.41237333-17.60824889 52.82474667-29.34670222 85.10691556-41.08515556 5.86979555 5.86865778 11.73845333-2.93546667 5.86979556-11.73959111z m-422.6002489 55.76021333c-70.43299555 5.86865778-132.06186667 61.62887111-155.5399111 134.99733334-32.28216889 105.64949333 20.54257778 211.29898667 120.32341333 246.51662222 8.80412445 2.93432889 20.54257778 5.86865778 29.34670222 5.86865778 14.67392 0 17.60824889-2.93546667 8.80412445-14.67278223-23.47690667-61.63000889-32.28103111-129.12867555-8.80412445-190.75754667 5.86979555-20.54257778 17.60824889-41.08515555 26.41237333-58.69454222 5.87093333-8.80412445 5.87093333-5.86979555 2.93546667-17.60824888-5.86979555-29.34670222-8.80412445-61.62887111-14.67392-93.91104 2.93546667-5.86979555 0-11.73845333-8.80412445-11.73845334zM181.84419555 689.55022222c-17.60824889 67.49866667 17.60824889 140.86712889 82.1714489 187.82208 88.04124445 64.56433778 208.36579555 46.95608889 269.99466666-38.15082667 5.86979555-8.80412445 14.67392-17.60824889 17.60824889-26.41237333 2.93546667-14.67392 2.93546667-17.60824889-8.80412445-14.67392-64.5632 5.86979555-132.06186667-8.80412445-184.8877511-49.89041777-17.60824889-14.67278222-32.28103111-26.41237333-46.9560889-44.02062223-5.86865778-5.86979555-5.86865778-5.86979555-17.6071111-8.80412444-29.34784-2.93546667-61.62887111-8.80412445-90.97671112-17.60824889-8.80412445-2.93546667-14.67392 0-20.54257778 11.73845333z m378.5784889 202.496c61.62887111 38.15196445 140.86712889 26.41237333 202.496-17.60824889 88.04124445-64.5632 108.58496-184.88775111 46.95608888-269.99466666-5.87093333-8.80412445-14.67392-17.60824889-20.54371555-23.47690667-8.80412445-5.87093333-14.67392-5.87093333-17.60824889 2.93432889-14.67392 64.56433778-46.95608889 120.32341333-105.64949334 161.40970666-17.60824889 14.67392-38.15196445 23.47804445-58.69454222 29.34670223-8.80412445 2.93546667-8.80412445 2.93546667-14.67392 14.67392-8.80412445 26.41237333-26.41237333 52.82474667-44.02062222 85.10691555 2.93546667 5.86979555 2.93546667 14.67392 11.73845334 17.60824889z m311.07982222-296.40704c52.82588445-46.95608889 70.43413333-123.25774222 46.95608888-199.56053333-32.28216889-105.65063111-140.86599111-161.40970667-243.58115555-129.12753778-8.80412445 2.93432889-20.54371555 5.86865778-29.34784 14.67278222-8.80412445 5.87093333-14.67392 8.80412445-2.93546667 17.60824889 52.82702222 32.28216889 99.78197333 85.10691555 120.32455112 146.73692445 5.86979555 20.54257778 8.80412445 41.08515555 14.67392 64.5632 0 8.80412445 0 8.80412445 5.86865777 17.60824888 23.47804445 20.54371555 44.02062222 44.02062222 64.56433778 67.49866667 8.80412445 5.86979555 14.67392 8.80412445 23.47804445 0z" fill="#CA1A1D" p-id="943"></path><path d="M507.59793778 748.24476445c-32.28216889 0-64.56433778-5.86865778-90.97671111-20.54257778-2.93546667 0-5.86865778-2.93546667-5.86865778-5.86979556V560.42382222c0-14.67392 8.80412445-17.60824889 17.60824889-5.86865777l70.43299555 70.43299555c2.93546667 2.93546667 2.93546667 2.93546667 8.80412445 0 61.62887111-58.69454222 120.32341333-117.38908445 181.95342222-176.08248889 2.93432889-2.93546667 14.67278222-2.93546667 17.60711111 2.93319111 8.80412445 26.41351111 17.60938667 52.82588445 17.60938667 85.10691556 0 117.38908445-99.78083555 211.30012445-217.16992 211.30012444z" fill="#CA1A1D" p-id="944"></path></svg>