<svg class="icon" style="width: 1em; height: 1em;vertical-align: middle;fill: currentColor;overflow: hidden;" viewBox="0 0 1024 1024" version="1.1" xmlns="http://www.w3.org/2000/svg" p-id="717"><path d="M492.92401778 372.60060445c-5.86865778-35.21649778-32.28216889-179.01795555-114.45361778-234.77703112 0 0-126.19320889 35.21649778-181.95342222 181.95228445 0 0 93.91217778 96.84536889 237.71249777 108.58496l2.93546667 26.41237333c-35.21649778 5.86865778-179.01795555 32.28216889-234.77816889 114.45361778 0 0 35.21649778 126.19320889 181.95342222 181.95342222 0 0 96.84536889-93.91217778 108.58382223-237.71249778l26.41237333-2.93546666c5.87093333 41.08629333 35.21763555 176.08362667 114.45475556 228.90951111 0 0 126.19320889-35.21763555 181.95342222-181.95342223 0 0-93.91217778-96.84650667-237.71363556-108.58496l2.93546667-20.54257777c41.08515555-5.86979555 176.08248889-35.21649778 228.90837333-114.45475556 0 0-35.21763555-126.19320889-181.95342222-181.95342222 0 0-96.84536889 93.91217778-108.58496 237.71363555l-26.41237333 2.93546667z m88.04124444-5.86979556c2.93546667-64.5632 46.95608889-146.73578667 67.49980445-155.53991111 44.02062222 20.54371555 82.17144889 85.10691555 82.17144888 85.10691555-41.08515555 52.82474667-146.73578667 73.36846222-149.67011555 70.43299556z m2.93546667 143.80145778c64.56433778 2.93546667 146.73578667 46.95608889 155.53991111 67.49866666-20.54257778 44.02062222-85.10577778 82.17258667-85.10577778 82.17258667-52.82588445-41.08515555-73.36846222-146.73578667-70.43413333-149.67125333z m-149.67125334 8.80412444c-2.93432889 64.56433778-46.95608889 146.73692445-67.49866666 155.54104889-44.02062222-20.54371555-82.17144889-85.10691555-82.17144889-85.10691555 41.08515555-52.82588445 146.73578667-73.36846222 149.67011555-70.43413334z m-5.86865777-149.67011556c-64.56433778-2.93546667-146.73692445-46.95608889-155.54104889-67.49866666 20.54371555-44.02062222 85.10691555-82.17258667 85.10691556-82.17258667 52.82588445 41.08629333 73.36846222 146.73578667 70.43413333 149.67125333zM211.19089778 874.43797333l29.34784-38.15082666-26.41351111-35.21763556h11.73959111l14.67392 20.54371556c2.93432889 2.93546667 5.86865778 5.86979555 5.86865777 8.80412444 2.93546667-2.93546667 2.93546667-5.86979555 5.86979556-8.80412444l14.67392-20.54371556h11.73845334l-26.41237334 35.21763556 29.34670222 41.08515555h-11.73845333l-17.60824889-26.41237333c0-2.93432889-2.93546667-2.93432889-2.93546666-5.86865778-2.93432889 2.93432889-2.93432889 5.86865778-2.9343289 5.86865778l-17.60824888 26.41237333h-17.60824889v-2.93432889z m85.10691555 0v-76.30279111h8.80412445v76.30279111h-8.80412445z m32.28216889 0v-76.30279111h29.34670223c5.87093333 0 11.73959111 0 14.67392 2.93546667 2.93546667 2.93432889 5.86979555 2.93432889 8.80412444 5.86865778 2.93546667 2.93546667 2.93546667 5.86979555 2.93546666 8.80412444 0 2.93546667 0 5.86979555-2.93546666 8.80412444-2.93546667 2.93546667-2.93546667 5.86979555-8.80412444 5.86979556 5.86979555 0 8.80412445 2.93546667 11.73845333 5.86979556 2.93546667 2.93432889 2.93546667 5.86865778 2.93546667 11.73845333 0 2.93546667 0 5.86979555-2.93546667 8.80412445-2.93432889 2.93546667-2.93432889 5.86979555-5.86865778 5.86979555-2.93546667 2.93546667-5.86979555 2.93546667-8.80412445 2.93546667H328.57884445v8.80298666z m11.73845333-44.02062222h26.41237334c2.93546667 0 5.87093333-2.93546667 5.87093333-2.93546666 0-2.93432889 2.93319111-2.93432889 2.93319111-5.86865778s0-5.86979555-2.93432888-5.86979556c0-2.93546667-2.93546667-2.93546667-5.86979556-2.93546666h-26.41237334v17.60938666z m0 35.21649778h23.47804445c2.93546667 0 2.93546667 0 5.86979555-2.93546667 2.93546667 0 2.93546667-2.93432889 2.93546667-2.93432889 0-2.93432889 2.93319111-2.93432889 2.93319111-5.86865778s0-5.86979555-2.93432888-5.86979555c0-2.93546667-2.93546667-2.93546667-5.86979556-2.93546667H337.38524445v20.54371556h2.93546666z m123.25888-20.54257778v-8.80412444h32.2821689v29.34670222c-5.87093333 2.93546667-8.80412445 5.86979555-14.67392 8.80412444-5.86979555 2.93546667-11.73959111 2.93546667-14.67392 2.93546667-8.80412445 0-14.67392-2.93546667-20.54257778-5.87093333-5.86979555-2.93432889-11.73959111-8.80298667-14.67392-14.67278222-2.93546667-5.86979555-5.86979555-11.73845333-5.86979556-20.54257778 0-5.87093333 2.93546667-14.67392 5.86979556-20.54371556 2.93546667-5.86865778 8.80412445-11.73845333 11.73845333-14.67392 5.87093333-2.93432889 11.73959111-5.86865778 20.54371555-5.86865778 5.86865778 0 11.73845333 0 14.67392 2.93546667 2.93432889 2.93319111 8.80412445 2.93319111 11.73845334 8.80298667 2.93546667 2.93546667 2.93546667 5.86979555 5.86979556 11.73959111l-8.80412445 2.93432889c0-2.93546667-2.93546667-5.86979555-2.93546667-8.80412445l-5.86865778-5.86979555c-2.93546667 0-5.87093333-2.93546667-11.7395911-2.93546667s-8.80412445 0-11.73845334 2.93546667c-2.93546667 0-5.86979555 2.93546667-8.80412444 5.86979555-2.93546667 2.93546667-2.93546667 5.86979555-5.86979556 8.80412445-2.93546667 5.86979555-2.93546667 8.80412445-2.93546666 14.67392s0 11.73845333 2.93546666 17.60824888c2.93546667 5.86865778 5.86979555 8.80412445 8.80412444 8.80412445 5.86979555 2.93546667 8.80412445 2.93546667 14.67392 2.93546667 2.93546667 0 8.80412445 0 11.73845334-2.93546667 2.93546667-2.93546667 5.86979555-2.93546667 8.80412444-5.86979555v-14.67392h-20.54257778v2.93546666z m52.82474667 29.34670222v-76.30279111h32.28216889c5.86979555 0 11.73845333 0 14.67392 2.93546667 2.93432889 0 5.86865778 2.93432889 8.80412444 5.86865778 2.93432889 2.93546667 2.93432889 5.86979555 2.9343289 11.73959111s-2.93546667 8.80412445-5.86979556 14.67278222c-2.93546667 2.93546667-8.80412445 5.86979555-14.67278222 5.86979555 2.93432889 0 5.86865778 2.93546667 5.86865778 2.93546667l8.80412444 8.80298667 11.73959111 20.54371556h-11.73959111l-8.80412444-14.67392c-2.93546667-5.86979555-5.86865778-8.80412445-5.86865778-11.73845334l-5.87093334-5.86979556c-2.93432889 0-2.93432889-2.93546667-5.86865778-2.93546666h-17.60824888v32.28216889h-8.80412445v5.87093333z m8.80412445-41.08515555h32.28216888c2.93546667 0 5.86979555-2.93546667 5.86979556-5.87093333s2.93432889-2.93432889 2.93432889-5.86865778 0-5.86979555-2.93546667-8.80412445c-2.93432889-2.93546667-5.86865778-2.93546667-11.73845333-2.93546667h-23.47804445v23.47804445h-2.93432888z m70.43299555 5.86865777c0-11.73845333 2.93546667-23.47804445 8.80412445-29.34670222 5.87093333-5.87093333 14.67392-11.73959111 26.41237333-11.73959111 5.87093333 0 11.73959111 2.93546667 17.60938667 5.86979556 5.86865778 2.93546667 8.80412445 8.80412445 11.73845333 14.67392 2.93546667 5.86865778 2.93546667 11.73845333 2.93546667 20.54257777 0 8.80412445-2.93546667 14.67392-5.87093334 20.54257778-2.93432889 5.87093333-8.80298667 11.73959111-11.73845333 14.67392-5.86865778 2.93546667-11.73845333 5.86979555-17.60824889 5.86979556-5.86979555 0-14.67392-2.93546667-17.60824889-5.86979556-5.86979555-2.93546667-8.80412445-8.80412445-11.73845333-14.67392-2.93546667-8.80412445-2.93546667-14.67278222-2.93546667-20.54257778z m8.80412445 0c0 8.80412445 2.93546667 17.60824889 5.87093333 20.54257778 5.86865778 5.87093333 11.73731555 8.80412445 17.60711111 8.80412445 8.80412445 0 14.67392-2.93432889 17.60824889-8.80412445 5.86979555-5.86865778 5.86979555-11.73845333 5.86979555-23.47690666 0-5.87093333 0-11.73959111-2.93546666-14.67392-2.93432889-5.86979555-5.86865778-8.80412445-8.80298667-11.73845334-2.93546667-2.93546667-8.80526222-2.93546667-14.67392-2.93546666s-11.73959111 2.93546667-17.60824889 5.86979555c0 5.86979555-2.93546667 14.67392-2.93546666 26.41237333z m129.12867555-41.08515555h8.80412445v44.02062222c0 8.80298667 0 14.67278222-2.93546667 17.60711111-2.93546667 5.87093333-5.86865778 8.80412445-8.80412445 11.73959112-5.86865778 2.93546667-11.73845333 2.93546667-17.60824888 2.93546666-5.86979555 0-11.73845333 0-17.60824889-2.93546666-5.86979555-2.93546667-8.80412445-5.86979555-8.80412445-11.73959112-2.93546667-5.86865778-2.93546667-11.73845333-2.93546666-17.60824888v-44.02062223h8.80526222v44.02062223c0 5.86979555 0 11.73959111 2.93546666 14.67392 0 2.93546667 2.93319111 5.86979555 5.86865778 5.86979555 2.93546667 2.93546667 5.86865778 2.93546667 11.73845334 2.93546667s11.73959111-2.93546667 14.67392-5.87093334c2.93546667-2.93432889 5.86979555-8.80412445 5.86979555-20.54257778v-41.08515555z m32.28103111 76.30165333v-76.30279111h41.08629334c2.93546667 0 5.86979555 2.93546667 8.80412444 2.93546667 2.93546667 2.93432889 5.86979555 2.93432889 5.86979556 5.86865778 2.93546667 2.93546667 2.93546667 5.86979555 2.93546666 8.80412444 0 5.86979555-2.93546667 11.73959111-5.87093333 17.60824889-2.93432889 2.93546667-11.73845333 5.86979555-23.47690667 5.86979555H774.656v29.34670223h-8.80412445v5.87093333z m11.73959112-38.15082666h20.54257777c5.86979555 0 11.73959111 0 14.67392-2.93546667 2.93546667-2.93546667 2.93546667-5.86865778 2.93546667-8.80412445s0-5.86865778-2.93546667-8.80412444l-5.86979555-5.86865778h-29.34670222v26.41237334z" fill="#0085D0" p-id="718"></path><path d="M170.10460445 70.32490667h680.85532444c41.08629333 0 76.30279111 32.28103111 76.30279111 76.30279111v730.74460444c0 41.08629333-32.28103111 76.30279111-76.30279111 76.30279111H170.10460445c-41.08515555 0-76.30279111-32.28103111-76.30279112-76.30279111V146.62769778c2.93546667-41.08629333 35.21649778-76.30279111 76.30279112-76.30279111z m11.7395911 35.21649778c-29.34784 0-52.82588445 23.47690667-52.82588444 52.82474666V865.63271111c0 29.34784 23.47804445 52.82474667 52.82588444 52.82474667h660.3116089c29.34784 0 52.82588445-23.47690667 52.82588444-52.82474667V158.36728889c0-29.34784-23.47804445-52.82474667-52.82588444-52.82474667H181.84419555z" fill="#0085D0" p-id="719"></path></svg>