<svg class="icon" style="width: 1em; height: 1em;vertical-align: middle;fill: currentColor;overflow: hidden;" viewBox="0 0 1024 1024" version="1.1" xmlns="http://www.w3.org/2000/svg" p-id="912"><path d="M390.20885333 927.26272c-161.40970667 8.80412445-293.47157333-117.38794667-293.47157333-275.86332445h193.69073778l82.17258667 82.17258667 85.10691555-82.17258667H651.40053333c-2.93546667 158.47537778-134.99733333 267.0592-261.19054222 275.86332445z m-293.47157333-534.1184c8.80412445 132.06186667 117.38794667 258.25507555 278.79765333 258.25507555V457.70752l-85.10577778-85.10577778 85.10577778-85.10805333V93.80181333c-164.34403555 5.86979555-287.60177778 137.9328-278.79765333 299.34250667z m537.05386667-293.47271111c161.40970667-8.80412445 293.47157333 117.38908445 293.47157333 275.86332444H733.57198222l-85.10691555-82.17031111-82.17258667 82.17144889H372.59946667c2.93546667-161.40970667 129.12753778-267.0592 261.19054222-275.86332444z m290.53724444 534.1184C915.52426667 501.72928 806.93930667 375.53493333 645.5296 375.53493333v193.69187556l82.17258667 85.10691556-82.17258667 82.17258666v193.69187556c161.40970667-2.93546667 284.66858667-134.99733333 278.79879111-296.40704z" fill="#7ECEF4" p-id="913"></path><path d="M466.51164445 431.29514667h88.04124444c23.47804445 0 38.15196445 20.54257778 38.15196444 38.15082666v88.04124445c0 20.54371555-14.67392 38.15196445-38.15082666 38.15196444h-88.04124445c-20.54371555 0-38.15196445-20.54257778-38.15196444-38.15082667V469.44711111c0-20.54371555 14.67278222-38.15196445 38.15082667-38.15196444z" fill="#FDD000" p-id="914"></path></svg>