<svg class="icon" style="width: 1em; height: 1em;vertical-align: middle;fill: currentColor;overflow: hidden;" viewBox="0 0 1024 1024" version="1.1" xmlns="http://www.w3.org/2000/svg" p-id="1174"><path d="M454.77319111 454.77319111h117.38908444v117.38908444H454.77319111z" fill="#0095DA" p-id="1175"></path><path d="M96.73728 566.29248V396.07864889c49.89041778 2.93546667 126.19320889 5.86979555 155.53991111-38.15196444 134.99733333-214.23445333 284.66744889-220.10311111 431.40437334-111.5192889v267.0592c-5.86979555-114.45361778-96.84650667-164.34403555-161.40970667-170.21269333-76.30279111-5.86979555-140.86712889 46.95608889-167.27950223 102.71516445-49.89041778 108.58496-129.12753778 111.51928889-258.25507555 120.32341333z" fill="#0095DA" p-id="1176"></path><path d="M927.26272 457.70752v170.21383111c-46.95608889-2.93546667-126.19320889-5.86979555-155.53991111 38.15196444-134.99733333 214.23445333-284.66744889 220.10311111-431.40437334 111.5192889V513.46773333c5.86979555 114.45361778 96.84650667 164.34403555 161.40970667 170.21383112 76.30279111 5.86865778 140.86712889-46.95608889 167.27950223-102.71516445 46.95608889-114.45475555 129.12753778-117.38908445 258.25507555-123.25888z" fill="#51A283" p-id="1177"></path></svg>