<svg class="icon" style="width: 1em; height: 1em;vertical-align: middle;fill: currentColor;overflow: hidden;" viewBox="0 0 1024 1024" version="1.1" xmlns="http://www.w3.org/2000/svg" p-id="1235"><path d="M510.53226667 96.73728c-228.90837333 0-413.79498667 181.95342222-413.79498667 413.79498667S284.55822222 924.32839111 510.53226667 924.32839111s416.73045333-181.95342222 416.73045333-413.79612444S742.37724445 96.73728 510.53226667 96.73728z m211.30012444 349.23178667c8.80412445 5.86865778 0 20.54257778 2.93546667 29.34670222 0 5.86979555-2.93546667 14.67392-8.80526223 17.60824889-5.86865778 2.93546667-14.67278222 2.93546667-20.54257777 2.93546667-5.86979555 8.80412445-29.34670222 8.80412445-23.47804445 26.41237333 0 5.86865778 8.80412445 17.60824889 17.60824889 20.54257777 8.80412445 2.93546667 23.47804445 0 29.34784 2.93546667 2.93546667 20.54257778 2.93546667 44.02062222-5.86979555 61.62887111-14.67392 5.86865778-20.54257778 23.47690667-38.15082667 20.54257778-5.86979555 2.93546667-17.60824889 8.80412445-20.54371555 17.60824889 0 17.60824889 17.60824889 8.80412445 26.41237333 20.54371555 8.80412445 0 20.54371555-5.87093333 29.34784 0 17.60824889 17.60824889 2.93546667 41.08515555 2.93546667 61.62887112l-14.67505778 17.60824888c-8.80412445 2.93546667-23.47690667 5.86979555-38.15082667 8.80412445v2.93546667H642.59413333c0-5.87093333-8.80412445-2.93546667-14.67392-5.87093334-8.80412445 5.87093333-20.54257778-2.93432889-29.34670222-2.93432888-49.89155555 5.86979555-85.10691555-23.47690667-134.99733333-17.6082489-17.60824889-14.67392-44.02062222-8.80412445-67.49866667-8.80412444-23.47804445 17.60824889-49.89041778 20.54371555-79.23712 23.47804444-14.67392 2.93546667-20.54371555-17.60824889-29.34784-20.54257777 0-14.67392-20.54257778-23.47804445-8.80412444-41.08629333 14.67392-14.67392 8.80412445-35.21649778 23.47804444-49.89155556 0-17.60711111 2.93546667-35.21536-8.80412444-44.02062222 2.93546667-20.54257778 2.93546667-44.02062222 8.80412444-64.5632 5.86979555-5.86979555 14.67392-23.47804445 26.41237334-14.67392 14.67392 23.47804445 58.69454222-2.93432889 61.6288711 29.34784 0 26.41237333-2.93546667 55.75907555-26.41237333 67.49866666-14.67392 20.54257778-46.95608889-5.86979555-49.89041777 23.47690667-2.93546667 14.67392 8.80412445 20.54371555 20.54371555 26.41351111 14.67278222-5.87093333 29.34670222-5.87093333 41.08515555-20.54371556 17.60938667 0 23.47804445-20.54257778 41.08629334-20.54257777 14.67392 5.86865778 26.41237333 5.86865778 38.15196444 20.54257777 5.86865778 2.93546667 8.80412445 5.86979555 17.60824889 8.80412445 17.60824889 14.67392 41.08515555-8.80412445 58.69454223 14.67392 8.80412445 2.93546667 20.54257778 2.93546667 29.34670222 0 5.86979555-2.93546667 14.67392-14.67392 8.80412444-20.54257778 0-5.87093333 0-8.80526222-5.86865778-14.67392-5.87093333-2.93546667-8.80412445 0-17.60938666 0-23.47690667 2.93546667-41.08515555-8.80412445-61.62887112-14.67392-14.67392-8.80412445-35.21649778-20.54257778-38.15082666-41.08515555-5.86979555-5.87093333-2.93546667-17.60938667-8.80412444-23.47918222 0-8.80412445 5.86865778-14.67278222 14.67278222-20.54257778 17.60824889-5.86979555 29.34784 8.80412445 46.95608888 2.93546666 8.80412445-5.87093333 23.47804445-2.93546667 29.34670223-17.60938666 5.87093333-5.86865778 2.93546667-20.54257778-2.93432889-26.41237334-2.93546667-2.93546667-8.80412445-2.93546667-14.67392 0-8.80412445 8.80412445-26.41237333 8.80412445-41.08515556 5.86979556-5.87093333-2.93546667-17.60938667-5.86979555-20.54371555-14.67392 2.93546667-14.67392 0-26.41237333 14.67392-38.15082667 0-8.80412445-5.86979555-17.60824889-14.67392-20.54371555-17.60824889 5.86979555-29.34670222-35.21649778-44.02062223-5.86865778 0 20.54257778 5.86979555 35.21649778 2.93546667 55.75907556-17.60938667 8.80412445-38.15196445 0-55.76021333 0-17.60824889-8.80412445-41.08629333-20.54257778-49.89155556-41.08515556 2.93546667-17.60938667-5.86865778-29.34784 0-46.95608889-8.80298667-20.54371555 8.80526222-35.21649778 8.80526222-49.89155555 8.80412445-8.80298667 20.54257778-20.54144 35.21649778-14.67278223 8.80412445 5.86979555 20.54257778 5.86979555 26.41237334 20.54371556 14.67392 2.93432889 26.41237333 14.67278222 44.02062222 8.80412444 14.67392-2.93546667 17.60824889-20.54371555 29.34784-20.54371555 20.54257778 0 49.89041778 8.80412445 64.5632-14.67278222 5.86979555-2.93546667 17.60824889-5.87093333 20.54371556-14.67392h38.15082666c2.93546667 8.80412445 14.67392 17.60824889 20.54371556 20.54257777 38.15082667 5.86979555 79.23712 14.67392 117.38794666 8.80412445 5.87093333 2.93546667 14.67392 2.93546667 17.60938667 8.80412444 0 23.47804445-2.93546667 49.89155555-29.34784 64.56433778-17.60824889 5.86979555-49.89041778-8.80412445-49.89041778 17.60824889 17.60824889 35.21649778 55.76021333 20.54257778 76.30279111 32.28216889z" fill="#C62824" p-id="1236"></path></svg>