<svg class="icon" style="width: 1em; height: 1em;vertical-align: middle;fill: currentColor;overflow: hidden;" viewBox="0 0 1024 1024" version="1.1" xmlns="http://www.w3.org/2000/svg" p-id="791"><path d="M134.88810667 96.73728h575.20583111c-52.82474667 26.41237333-170.21383111 96.84536889-223.03857778 190.75640889-146.73692445 0-196.62734222 5.86979555-196.62734222 5.86979556l-14.67278223 416.73045333c58.69454222-35.21649778 102.71516445-79.23825778 129.1264-123.25888 35.21763555-52.82474667 35.21763555-102.71516445 58.69568-161.40970667 79.23712-208.36465778 258.25507555-311.07982222 378.5784889-325.75374222h44.02062222c23.47804445 0 41.08629333 17.60824889 41.08629333 41.08515556v748.35512888c0 23.47804445-17.60824889 41.08515555-41.08515555 41.08515556h-584.00995556c58.69454222-32.28103111 164.34403555-96.84536889 217.16878222-190.75640889 152.60558222 5.86979555 196.62620445 0 196.62620444 0l14.67392-416.73045333c-58.69454222 35.21649778-102.71516445 79.23825778-129.12753777 123.25888-35.21649778 52.82474667-35.21649778 102.71516445-58.69454223 161.40970666C466.51164445 806.93930667 299.23214222 909.65333333 178.90872889 933.13251555h-44.02062222c-23.47804445 0-41.08515555-17.60824889-41.08515556-41.08515555V140.75676445c2.93432889-26.41237333 20.54257778-44.02062222 41.08515556-44.02062223z" fill="#005BAC" p-id="792"></path></svg>