<svg class="icon" style="width: 1em; height: 1em;vertical-align: middle;fill: currentColor;overflow: hidden;" viewBox="0 0 1024 1024" version="1.1" xmlns="http://www.w3.org/2000/svg" p-id="927"><path d="M927.26272 510.53226667c0-228.90837333-181.95342222-410.86065778-402.05653333-410.86065778-155.53991111 0-272.92899555 129.12753778-272.92899556 272.93013333 0 129.1264 99.78083555 228.90723555 228.90837334 228.90723556 26.41237333 0 55.75907555-8.80412445 73.36846222-17.60824889-82.17258667 0-146.73692445-64.56433778-146.73692445-146.73578667s64.56433778-146.73692445 146.73692445-146.73692444c164.34403555 0 293.47157333 129.12867555 293.47157333 293.47271111 0 137.9328-82.17258667 264.12487111-190.75640889 328.68920889 152.60558222-61.63000889 269.99466667-217.16992 269.99466667-402.05653333zM516.4032 99.67160889z" fill="#EA5603" p-id="928"></path><path d="M96.73728 510.53226667c0 228.90951111 181.95342222 410.86179555 402.05653333 410.86179555 155.53991111 0 272.92899555-129.12867555 272.92899556-272.93013333 0-129.1264-99.78083555-228.90723555-228.90837334-228.90723556-26.41237333 0-55.75907555 8.80412445-73.36846222 17.60824889 82.17258667 0 146.73692445 64.5632 146.73692445 146.73578667S551.61742222 730.63651555 469.44597333 730.63651555c-164.34403555 0-293.47157333-129.12753778-293.47157333-293.47157333 0-137.9328 82.17258667-264.12487111 190.75640889-328.68920889-161.40970667 64.56433778-269.99466667 220.10311111-269.99466667 402.05653334z m402.05653333 413.79612444z" fill="#EA5603" p-id="929"></path></svg>