<svg class="icon" style="width: 1em; height: 1em;vertical-align: middle;fill: currentColor;overflow: hidden;" viewBox="0 0 1024 1024" version="1.1" xmlns="http://www.w3.org/2000/svg" p-id="1263"><path d="M513.46773333 428.36081778c-17.60824889-29.34784-29.34784-64.56433778-44.02062222-93.91217778-23.47804445-61.62887111-46.95608889-120.32341333-67.49866666-181.95228445-67.49866667 196.62620445-176.08362667 378.57962667-305.21116445 531.1852089 96.84536889-23.47804445 196.62620445-38.15196445 293.47157333-44.02062223 46.95608889-67.49866667 85.10691555-137.9328 123.25888-211.30012444" fill="#BF0017" p-id="1264"></path><path d="M513.46773333 636.72547555c-41.08629333 0-82.17258667 0-120.32341333 2.93546667-52.82588445 82.17144889-117.38908445 158.47424-184.88888889 231.84270223 99.78197333-20.54371555 202.49713778-26.41237333 305.21230222-26.41237334s208.36465778 8.80412445 305.21116445 26.41237334c-67.49866667-73.36846222-132.06300445-152.60558222-184.88888889-231.84270223-38.14968889-2.93546667-79.23598222-2.93546667-120.32227556-2.93546667" fill="#730000" p-id="1265"></path><path d="M96.73728 683.68156445l108.58382222 187.82208c67.49866667-73.36846222 132.06300445-152.60558222 184.88888889-231.84270223-99.78197333 5.86865778-196.62734222 20.54257778-293.47271111 44.02062223" fill="#E60020" p-id="1266"></path><path d="M390.20885333 639.66094222c46.95608889-67.49866667 88.04124445-137.9328 120.32341334-211.30012444 38.15196445 73.36732445 76.30279111 143.80145778 120.32341333 211.30012444-41.08515555-2.93546667-82.17144889-2.93546667-120.32341333-2.93546667-38.15082667 0-79.23712 0-120.32341334 2.93546667" fill="#FFFFFF" p-id="1267"></path><path d="M622.05155555 152.49635555c-20.54257778 61.62887111-41.08515555 120.32341333-67.49752888 181.95342223-14.67392 32.28103111-26.41351111 64.5632-44.02062222 93.91104 38.14968889 73.36732445 76.30165333 143.80145778 120.32227555 211.30012444 99.78083555 5.86865778 199.56167111 20.54257778 293.47271111 44.02062223C795.20085333 528.14051555 692.48568889 346.18823111 622.05155555 152.49635555" fill="#E60020" p-id="1268"></path><path d="M513.46773333 428.36081778c17.60824889-29.34784 29.34670222-64.56433778 44.02062222-93.91217778 23.47804445-61.62887111 46.95608889-120.32341333 67.49866667-181.95228445H404.88277333c20.54257778 61.62887111 41.08515555 120.32341333 67.49866667 181.95342223 11.73845333 29.34670222 23.47804445 61.62887111 41.08515555 93.91104" fill="#730000" p-id="1269"></path><path d="M818.67889778 871.50364445l108.58382222-187.82208c-93.91104-23.47804445-190.75640889-38.15196445-293.47157333-44.02062223 58.69454222 79.23712 117.38908445 158.47424 184.88775111 231.84270223" fill="#BF0017" p-id="1270"></path></svg>