<svg class="icon" style="width: 1em; height: 1em;vertical-align: middle;fill: currentColor;overflow: hidden;" viewBox="0 0 1024 1024" version="1.1" xmlns="http://www.w3.org/2000/svg" p-id="1249"><path d="M99.67160889 492.92401778s29.34670222-407.92632889 451.94808889-396.18673778c0 0 349.23064889 20.54257778 375.64302222 399.12106667H727.70218667s-120.32341333 2.93546667-217.16992-184.88661334c0 0-108.58382222 167.27950222-228.90837334 184.88775112l-181.95228444-2.93546667z m-2.93546667 23.47804444l205.43146667 2.93546667s32.28216889 0 58.69454222 23.47690666H99.67160889l-2.93546667-26.41237333z m5.87093333 52.82474667h299.3413689s23.47690667 8.80412445 35.21649777 32.28216889l-328.68920889 2.93546667-5.86979555-35.21763556z m17.60711112 64.56433778h343.36312888s46.95608889 46.95608889 35.21649778 161.40970666c0 0 23.47804445 20.54257778 29.34670222-2.93546666 0 0-14.67278222-161.40970667 35.21763556-161.40970667l343.36199111-2.93432889-20.54371555 46.95608889H765.85301333s-44.02062222-8.80412445-41.08515555 58.69454222c0 0 0 217.16878222-211.30012445 190.75640889 0 0-223.03857778 11.73845333-220.10424888-179.01795556 0 0 8.80412445-85.10691555-46.9560889-64.56433777h-108.58382222l-17.60938666-46.95608889z m466.62087111-29.34784s8.80412445-35.21649778 58.69454222-29.34670222l272.93013333-2.93546667-2.93546666 29.34784-328.68920889 2.93546667z m73.36846222-55.75907556s14.67392-32.28216889 35.21649778-32.28216889l228.90837333 2.93546667-2.93546666 32.28103111-261.18940445-2.93546667z" fill="#004EA2" p-id="1250"></path></svg>