<svg class="icon" style="width: 1em; height: 1em;vertical-align: middle;fill: currentColor;overflow: hidden;" viewBox="0 0 1024 1024" version="1.1" xmlns="http://www.w3.org/2000/svg" p-id="1327"><path d="M510.53226667 175.9744c184.88888889 0 334.55900445 149.67125333 334.55900444 334.55786667 0 184.88888889-149.67125333 334.55900445-334.55900444 334.55900444-184.88661333 0-334.55786667-149.67125333-334.55786667-334.55900444 0-184.88661333 149.67125333-334.55786667 334.55786667-334.55786667z m0-79.23712c-231.84270222 0-416.73045333 184.88661333-416.73045334 416.73045333s184.88888889 416.73045333 416.73045334 416.73045334 416.73045333-184.88888889 416.73045333-416.73045334S742.37724445 96.73728 510.53226667 96.73728zM325.64565333 310.97173333v85.10577778h41.08515556v-85.10577778h-41.08515556z m170.21383112 404.992h41.08515555V569.22567111h20.54371555v55.76021334h29.34670223v-55.76021334h20.54371555v79.23825778h-49.89155555v64.5632h85.10805333V466.51164445h64.5632v-35.21649778h-64.5632V305.10193778h-35.21649778v58.69454222h-76.30279111v44.02062222h85.10577778v126.19320889H428.36195555V407.81710222h85.10577778v-35.21649777h-79.23712v-58.69454223h-29.34670222v126.19320889h-64.56433778v35.21649778h64.56433778v246.51662222h85.10577778v-64.5632h-49.88928v-79.23825778h5.86979556v55.76021334h29.34670222v-55.76021334h20.54371555v137.9328z m-170.21383112-225.97404444v225.97404444h41.08515556v-225.97404444h-41.08515556z m337.49219556-179.01795556v85.10577778h44.02062222v-85.10577778h-44.02062222z m0 179.01795556v225.97404444h44.02062222v-225.97404444h-44.02062222z m-211.30012444-179.01795556v41.08515556h55.76021333v-41.08515556h-55.76021333z m76.3027911 0v41.08515556h44.02062223v-41.08515556h-44.02062223z m-85.10577777 129.12753778v85.10691556h35.21649777v-85.10691556h-35.21763555z m52.82474667 0v85.10691556h35.21649777v-85.10691556h-35.21649777z m55.75907555 0v85.10691556h35.21649778v-85.10691556h-35.21649778z" fill="#E60012" p-id="1328"></path></svg>