<svg class="icon" style="width: 1em; height: 1em;vertical-align: middle;fill: currentColor;overflow: hidden;" viewBox="0 0 1024 1024" version="1.1" xmlns="http://www.w3.org/2000/svg" p-id="1130"><path d="M492.92401778 187.71285333c176.08362667 0 322.81941333 146.73692445 322.81941333 322.81941334 0 82.17258667-29.34670222 155.54104889-82.17144889 211.30012444h93.91104c38.15082667-61.62887111 61.62887111-134.99733333 61.62887111-211.30012444 0-220.10311111-176.08248889-396.18673778-396.18787555-396.18673778S96.73728 296.29895111 96.73728 510.53226667c0 184.88888889 129.1264 343.36312889 302.27569778 387.38375111 61.62887111-108.58496 64.56433778-287.60291555 61.62887111-340.42766223 0-52.82474667-20.54257778-93.91217778-67.49752889-108.58496C346.18823111 437.16494222 284.55822222 469.44711111 284.55822222 469.44711111s93.91104-20.54257778 108.58496 38.15196444c8.80412445 46.95608889 11.73845333 120.32341333 8.80412445 184.88775112 0 35.21649778 0 90.97671111-11.73959112 120.32341333-126.19320889-44.02062222-214.23445333-164.34403555-214.23445333-305.21116445-5.86979555-173.14816 140.86712889-319.88508445 316.95075556-319.88508444zM234.66894222 428.36195555s117.38908445-129.12867555 293.47157333-120.32341333c173.14929778 8.80412445 223.03857778 67.49752889 223.03857778 67.49752889s-99.77969778 38.15196445-140.86599111 111.52042667c0 0 134.99733333-2.93546667 158.47537778 26.41237333 0 0-149.67125333 26.41237333-293.47271111 314.01528889 0 0 26.41237333-190.75754667 167.27950222-302.27683555 0 0-64.56433778-8.80412445-99.78083556 8.80412444 0 0 11.73959111-85.10577778 85.10691556-149.67125334 0 0-82.17258667-46.95495111-228.90837333-11.73845333-146.73578667 35.21649778-164.34403555 55.76021333-164.34403556 55.76021333z" fill="#E50012" p-id="1131"></path><path d="M557.48835555 833.35168l-38.15196444-2.93546667c0-8.80298667 2.93546667-11.73731555 2.93546667-17.60711111 2.93546667-2.93546667 8.80412445-8.80412445 11.73845333-8.80412444 2.93546667 0 8.80412445-2.93546667 11.73845334-2.93546667h49.89155555c8.80298667 0 11.73845333 2.93546667 17.60711111 8.80526222 2.93546667 2.93432889 2.93546667 8.80412445 8.80412444 11.73845334 0 2.93546667 2.93546667 8.80412445 2.93546667 17.60824888v58.69454223c0 2.93546667 0 2.93546667 2.93546667 8.80412444h-38.15196444c0-2.93546667-2.93546667-2.93546667-2.93546667-2.93546667v-8.80298666c-2.93432889 2.93432889-8.80412445 8.80412445-17.60824889 8.80412444-8.80412445 2.93432889-11.73845333 2.93432889-26.41237334 2.93432889s-20.54257778-2.93546667-26.41237333-8.80412444c-2.93546667-2.93546667-8.80412445-11.73959111-8.80412444-20.54371556 0-8.80412445 2.93546667-11.73845333 8.80412444-17.60824889 2.93546667-2.93432889 11.73845333-8.80412445 26.41237333-11.73845333 11.73959111-2.93546667 26.41237333-2.93546667 29.34784-2.93546667 2.93432889 0 8.80412445-2.93432889 11.73845334-2.93432888 0-2.93432889 0-8.80412445-2.93546667-8.80412445 0 0-2.93432889-2.93546667-8.80298667-2.93546667-2.93546667 0-11.73959111 0-11.7395911 2.93546667 0-5.86865778 0-2.93546667-2.93546667 0z m35.21649778 23.47804445c-2.93546667 0-11.73845333 2.93546667-17.60824888 2.93546666-8.80412445 0-11.73845333 2.93432889-17.6082489 2.93432889-2.93546667 0-2.93546667 2.93546667-2.93546666 8.80412445s0 2.93546667 2.93546666 8.80412444c2.93546667 0 2.93546667 2.93546667 8.80412445 2.93546666 2.93546667 0 8.80412445 0 11.73845333-2.93546666 2.93546667 0 2.93546667-2.93546667 8.80412445-8.80412444 0-2.93546667 2.93546667-8.80412445 2.93546667-11.73959112v-2.93432888h2.93432888z m76.30279112-55.76021334h38.15082666v17.60938667c2.93546667-8.80412445 11.73959111-11.73959111 17.60938667-11.73959111 2.93432889-2.93546667 11.73845333-2.93546667 20.54257777-2.93546667 11.73845333 0 20.54257778 2.93546667 26.41237334 8.80526222 2.93546667 2.93546667 8.80412445 17.60824889 8.80412444 29.34670223v64.56433777h-38.14968888v-55.76021333c0-2.93432889 0-11.73845333-2.93546667-11.73845334-2.93546667-2.93546667-2.93546667-2.93546667-8.80412445-2.93546666-2.93546667 0-8.80412445 0-11.73845333 2.93546666-2.93546667 2.93546667-2.93546667 8.80412445-2.93546667 20.54257778v46.95608889h-38.15082666v-102.71516444h-8.80412445z m143.80145777-38.15082666h38.15082667v73.36846222l29.34784-35.21763556h46.95608889l-38.15196445 35.21763556 38.15082667 64.5632h-44.02062222l-20.54257778-44.02062222-11.73959111 11.73845333v26.41351111h-38.15082667V762.91868445z" fill="#E50012" p-id="1132"></path></svg>