<svg class="icon" style="width: 1em; height: 1em;vertical-align: middle;fill: currentColor;overflow: hidden;" viewBox="0 0 1024 1024" version="1.1" xmlns="http://www.w3.org/2000/svg" p-id="1190"><path d="M578.03093333 548.68423111h311.07982222l38.15196445-38.15196444-38.15082667-35.21649778H501.72814222z m111.51928889-272.93013333L619.11722667 199.45244445l-76.30279112 76.3027911z m93.91217778 381.51509333H595.63804445l-73.36732445 70.43299556 2.93546667 2.93546666h181.95114666z m-258.25621333-363.90684444l-70.43299556 73.36846222h328.68807111l-76.30279111-73.36732444z m70.43299555 272.93013333l46.95608889 46.95608889-29.34784 26.41237333h187.82208l70.43413334-73.36846222z m-52.82474667 181.95342222l76.30279112 76.30165333 70.43299555-76.3027911z m-105.64949333-363.90684444l-14.67392 11.73959111 64.56433778 61.62887111H871.50364445l-70.43413334-73.36846222z" fill="#A88249" p-id="1191"></path><path d="M384.33905778 410.75256889l114.45475555-114.45475556-90.97671111-96.84536888-311.07982222 311.07982222 311.07982222 314.01528888L601.50897778 627.92135111z" fill="#003D75" p-id="1192"></path></svg>