<svg class="icon" style="width: 1em; height: 1em;vertical-align: middle;fill: currentColor;overflow: hidden;" viewBox="0 0 1024 1024" version="1.1" xmlns="http://www.w3.org/2000/svg" p-id="805"><path d="M748.24476445 437.16494222h176.08362666c0-8.80412445-2.93546667-11.73959111-2.93546666-20.54371555h-179.01795556l5.87093333 20.54371555z" fill="#E50012" p-id="806"></path><path d="M845.09127111 686.61589333l-88.04124444 123.25888h-493.03324445l-88.04238222-129.12867555 220.10311111-539.98933333L513.46773333 428.36195555l123.25774222-287.60291555 99.78083556 252.38641778h184.88775111C868.56817778 219.99502222 710.09393778 93.80181333 522.27185778 93.80181333c-234.77816889 2.93546667-422.60024889 187.82208-422.60024889 419.66592S287.49368889 930.19818667 516.40206222 930.19818667c179.01795555 0 334.55786667-117.38908445 393.25240889-275.86446222h-73.36732444l8.80412444 32.28216888z" fill="#E50012" p-id="807"></path><path d="M475.31576889 677.81176889L354.99235555 393.14432 240.53873778 680.74609778l463.68540444 5.86979555-117.38908444-293.47157333z m284.66858666-199.56053334h167.27836445c0-8.80526222 0-11.73959111-2.93432889-20.54371555H751.18023111l8.80412444 20.54371555z m32.28103112 79.23712h134.99733333v-20.54371555H783.4624l8.80412445 20.54371555z m134.99733333-58.69454222H765.85301333l8.80412445 20.54257778h152.60558222v-20.54257778zM824.54755555 633.79114667h88.04124445c0-8.80412445 2.93546667-11.73959111 2.93546667-20.54371556h-99.78083556l8.80412444 20.54371556z m-17.60824888-41.08629334h111.51928888c0-8.80412445 2.93546667-11.73845333 2.93546667-20.54257778H798.13518222l8.80412445 20.54257778z" fill="#E50012" p-id="808"></path></svg>