<svg class="icon" style="width: 1em; height: 1em;vertical-align: middle;fill: currentColor;overflow: hidden;" viewBox="0 0 1024 1024" version="1.1" xmlns="http://www.w3.org/2000/svg" p-id="1014"><path d="M510.53226667 96.73728c-228.90837333 0-416.73045333 181.95342222-416.73045334 416.73045333 0 231.84270222 187.82208 416.73045333 416.73045334 416.73045334 231.84384 0 416.73045333-187.82208 416.73045333-416.73045334 0-228.90951111-181.95342222-416.73045333-416.73045333-416.73045333z m0 763.02791111c-193.69073778 0-349.23178667-155.54104889-349.23178667-349.23292444 0-193.69073778 155.54104889-349.23178667 349.23178667-349.23178667 193.69187555 0 349.23178667 155.54104889 349.23178666 349.23178667 0 49.89155555-8.80412445 93.91217778-26.41237333 137.9328 0 5.86865778-5.86865778 8.80412445-5.86865778 8.80412444l5.86865778 23.47690667s-5.86865778-5.86865778-14.67278222-8.80412445C657.26919111 551.61856 399.01297778 551.61856 399.01297778 551.61856c35.21649778-61.62887111 35.21649778-146.73578667 35.21649777-146.73578667 85.10691555-67.49866667 214.23559111-49.89041778 214.23559112-49.89041778l-32.28216889 137.9328 99.77969777-181.95342222c-173.14702222-23.47804445-369.77436445 52.82474667-369.77436444 52.82474667 41.08515555 146.73578667-117.38908445 296.40704-117.38908444 296.40704 340.42766222-79.23712 522.38108445 0 581.07448888 32.28216889-61.62887111 99.77969778-167.27836445 167.27836445-299.34136888 167.27836444z" fill="#A40000" p-id="1015"></path></svg>