<svg class="icon" style="width: 1em; height: 1em;vertical-align: middle;fill: currentColor;overflow: hidden;" viewBox="0 0 1024 1024" version="1.1" xmlns="http://www.w3.org/2000/svg" p-id="1042"><path d="M96.73728 401.94844445h64.5632v64.5632h-64.5632z" fill="#E74225" p-id="1043"></path><path d="M96.73728 481.18556445h64.5632v64.5632h-64.5632z" fill="#E096A5" p-id="1044"></path><path d="M96.73728 557.48835555h64.5632v64.5632h-64.5632z" fill="#E74225" p-id="1045"></path><path d="M173.04007111 401.94844445h64.5632v64.5632h-64.5632z" fill="#E73E23" p-id="1046"></path><path d="M173.04007111 481.18556445h64.5632v64.5632h-64.5632z" fill="#E73C22" p-id="1047"></path><path d="M173.04007111 557.48835555h64.5632v64.5632h-64.5632z" fill="#E73E23" p-id="1048"></path><path d="M246.40853333 401.94844445h64.5632v64.5632h-64.56433778z" fill="#F9C053" p-id="1049"></path><path d="M246.40853333 481.18556445h64.5632v64.5632h-64.56433778z" fill="#E73E23" p-id="1050"></path><path d="M246.40853333 557.48835555h64.5632v64.5632h-64.56433778z" fill="#B50080" p-id="1051"></path><path d="M325.64565333 401.94844445h64.5632v64.5632h-64.5632z" fill="#E73E23" p-id="1052"></path><path d="M325.64565333 481.18556445h64.5632v64.5632h-64.5632z" fill="#E096A5" p-id="1053"></path><path d="M325.64565333 557.48835555h64.5632v64.5632h-64.5632z" fill="#E84426" p-id="1054"></path><path d="M633.79114667 401.94844445h64.5632v64.5632h-64.5632z" fill="#E73C22" p-id="1055"></path><path d="M633.79114667 481.18556445h64.5632v64.5632h-64.5632z m0 76.3027911h64.5632v64.5632h-64.5632z" fill="#E74225" p-id="1056"></path><path d="M713.02826667 401.94844445h64.56433778v64.5632h-64.56433778z" fill="#E84A2A" p-id="1057"></path><path d="M713.02826667 481.18556445h64.56433778v64.5632h-64.56433778z" fill="#E74225" p-id="1058"></path><path d="M713.02826667 557.48835555h64.56433778v64.5632h-64.56433778z" fill="#B50080" p-id="1059"></path><path d="M786.39672889 401.94844445h64.5632v64.5632H786.39786667z" fill="#F9C053" p-id="1060"></path><path d="M786.39672889 481.18556445h64.5632v64.5632H786.39786667z" fill="#E73820" p-id="1061"></path><path d="M786.39672889 557.48835555h64.5632v64.5632H786.39786667z" fill="#B50080" p-id="1062"></path><path d="M865.63384889 401.94844445h64.56433778v64.5632H865.63271111z" fill="#900000" p-id="1063"></path><path d="M865.63384889 481.18556445h64.56433778v64.5632H865.63271111z" fill="#E096A5" p-id="1064"></path><path d="M865.63384889 557.48835555h64.56433778v64.5632H865.63271111z" fill="#E7351F" p-id="1065"></path><path d="M401.94844445 862.69952h64.5632v64.5632h-64.5632z m79.23712 0h64.5632v64.5632h-64.5632z" fill="#E73E23" p-id="1066"></path><path d="M557.48835555 862.69952h64.5632v64.5632H557.48835555z" fill="#009F46" p-id="1067"></path><path d="M401.94844445 786.39672889h64.5632v64.5632h-64.5632z" fill="#E73E23" p-id="1068"></path><path d="M481.18556445 786.39672889h64.5632v64.5632h-64.5632z" fill="#E096A5" p-id="1069"></path><path d="M557.48835555 786.39672889h64.5632v64.5632H557.48835555z m-155.5399111-73.36846222h64.5632v64.56433778h-64.5632z" fill="#E73E23" p-id="1070"></path><path d="M481.18556445 713.02826667h64.5632v64.56433778h-64.5632z" fill="#E7351F" p-id="1071"></path><path d="M557.48835555 713.02826667h64.5632v64.56433778H557.48835555z" fill="#B50080" p-id="1072"></path><path d="M401.94844445 633.79114667h64.5632v64.5632h-64.5632z" fill="#E84D2C" p-id="1073"></path><path d="M481.18556445 633.79114667h64.5632v64.5632h-64.5632z" fill="#900000" p-id="1074"></path><path d="M557.48835555 633.79114667h64.5632v64.5632H557.48835555z" fill="#E84A2A" p-id="1075"></path><path d="M633.79114667 786.39672889h64.5632v64.5632h-64.5632z m79.23712 0h64.56433778v64.5632h-64.56433778z" fill="#E84426" p-id="1076"></path><path d="M633.79114667 713.02826667h64.5632v64.56433778h-64.5632z" fill="#E096A5" p-id="1077"></path><path d="M713.02826667 713.02826667h64.56433778v64.56433778h-64.56433778z" fill="#E84A2A" p-id="1078"></path><path d="M786.39672889 713.02826667h64.5632v64.56433778H786.39786667z" fill="#F29600" p-id="1079"></path><path d="M633.79114667 633.79114667h64.5632v64.5632h-64.5632z" fill="#E74225" p-id="1080"></path><path d="M713.02826667 633.79114667h64.56433778v64.5632h-64.56433778z" fill="#E73C22" p-id="1081"></path><path d="M786.39672889 633.79114667h64.5632v64.5632H786.39786667z" fill="#E73E23" p-id="1082"></path><path d="M401.94844445 325.64565333h64.5632v64.5632h-64.5632z" fill="#900000" p-id="1083"></path><path d="M481.18556445 325.64565333h64.5632v64.5632h-64.5632z" fill="#E096A5" p-id="1084"></path><path d="M557.48835555 325.64565333h64.5632v64.5632H557.48835555z" fill="#E73E23" p-id="1085"></path><path d="M401.94844445 246.40853333h64.5632v64.5632h-64.5632z" fill="#E84A2A" p-id="1086"></path><path d="M481.18556445 246.40853333h64.5632v64.5632h-64.5632z" fill="#900000" p-id="1087"></path><path d="M557.48835555 246.40853333h64.5632v64.5632H557.48835555z" fill="#E84426" p-id="1088"></path><path d="M401.94844445 173.04007111h64.5632v64.5632h-64.5632z" fill="#E096A5" p-id="1089"></path><path d="M481.18556445 173.04007111h64.5632v64.5632h-64.5632z" fill="#E73E23" p-id="1090"></path><path d="M557.48835555 173.04007111h64.5632v64.5632H557.48835555z" fill="#B50080" p-id="1091"></path><path d="M173.04007111 325.64565333h64.5632v64.5632h-64.5632z" fill="#E84426" p-id="1092"></path><path d="M246.40853333 325.64565333h64.5632v64.5632h-64.56433778z" fill="#E74225" p-id="1093"></path><path d="M325.64565333 325.64565333h64.5632v64.5632h-64.5632z" fill="#E73820" p-id="1094"></path><path d="M173.04007111 246.40853333h64.5632v64.5632h-64.5632z" fill="#E74225" p-id="1095"></path><path d="M246.40853333 246.40853333h64.5632v64.5632h-64.56433778z" fill="#E73E23" p-id="1096"></path><path d="M325.64565333 246.40853333h64.5632v64.5632h-64.5632z" fill="#B50080" p-id="1097"></path><path d="M246.40853333 173.04007111h64.5632v64.5632h-64.56433778z" fill="#E84426" p-id="1098"></path><path d="M325.64565333 173.04007111h64.5632v64.5632h-64.5632z m460.75107556 152.60558222h64.5632v64.5632H786.39786667z" fill="#E73C22" p-id="1099"></path><path d="M786.39672889 246.40853333h64.5632v64.5632H786.39786667z" fill="#E84A2A" p-id="1100"></path><path d="M713.02826667 325.64565333h64.56433778v64.5632h-64.56433778z" fill="#E73E23" p-id="1101"></path><path d="M713.02826667 246.40853333h64.56433778v64.5632h-64.56433778z" fill="#B50080" p-id="1102"></path><path d="M713.02826667 173.04007111h64.56433778v64.5632h-64.56433778z" fill="#E73C22" p-id="1103"></path><path d="M633.79114667 325.64565333h64.5632v64.5632h-64.5632z" fill="#E096A5" p-id="1104"></path><path d="M633.79114667 246.40853333h64.5632v64.5632h-64.5632z" fill="#E73E23" p-id="1105"></path><path d="M633.79114667 173.04007111h64.5632v64.5632h-64.5632z" fill="#E84426" p-id="1106"></path><path d="M325.64565333 786.39672889h64.5632v64.5632h-64.5632z" fill="#E84A2A" p-id="1107"></path><path d="M325.64565333 713.02826667h64.5632v64.56433778h-64.5632z" fill="#F29600" p-id="1108"></path><path d="M325.64565333 633.79114667h64.5632v64.5632h-64.5632z" fill="#E74225" p-id="1109"></path><path d="M246.40853333 786.39672889h64.5632v64.5632h-64.56433778z" fill="#E84A2A" p-id="1110"></path><path d="M246.40853333 713.02826667h64.5632v64.56433778h-64.56433778z" fill="#900000" p-id="1111"></path><path d="M246.40853333 633.79114667h64.5632v64.5632h-64.56433778z" fill="#E7351F" p-id="1112"></path><path d="M173.04007111 713.02826667h64.5632v64.56433778h-64.5632z" fill="#E84729" p-id="1113"></path><path d="M173.04007111 633.79114667h64.5632v64.5632h-64.5632z" fill="#E73C22" p-id="1114"></path><path d="M401.94844445 96.73728h64.5632v64.5632h-64.5632z" fill="#E84426" p-id="1115"></path><path d="M481.18556445 96.73728h64.5632v64.5632h-64.5632z" fill="#E84A2A" p-id="1116"></path><path d="M557.48835555 96.73728h64.5632v64.5632H557.48835555z" fill="#E73820" p-id="1117"></path></svg>