<svg class="icon" style="width: 1em; height: 1em;vertical-align: middle;fill: currentColor;overflow: hidden;" viewBox="0 0 1024 1024" version="1.1" xmlns="http://www.w3.org/2000/svg" p-id="1220"><path d="M290.42915555 563.35815111c0-58.69454222 202.49486222-58.69454222 202.49486223-88.04124444 0-35.21763555-319.88394667-38.15196445-319.88394667-90.97671112s187.82208-46.95608889 187.82208-76.3027911-143.80145778-35.21763555-187.82208-38.15196445c-46.95608889 67.49866667-76.30279111 155.53991111-76.30279111 240.64682667 0 231.84384 187.82208 416.73045333 416.73045333 416.73045333 143.80145778 0 275.86332445-73.36732445 349.23178667-187.82208-117.38908445-14.67278222-572.27150222-82.17144889-572.27150222-176.08248889z" fill="#00A242" p-id="1221"></path><path d="M484.11989333 302.16760889c0 46.95608889-184.88775111 44.02062222-184.88775111 67.49866666 0 35.21649778 363.90684445 38.15082667 363.90684445 105.64949334 0 52.82474667-184.88888889 58.69454222-184.88888889 82.17258666 0 29.34670222 366.84117333 61.62887111 434.33984 67.49866667 8.80412445-38.15196445 14.67278222-76.30279111 14.67278222-117.38908444 0-231.84270222-187.82208-416.73045333-416.73045333-416.73045333-134.99733333 0-252.38528 61.62887111-328.68807112 158.47537777 67.49866667 5.86865778 302.27569778 14.67278222 302.27569778 52.82474667z" fill="#00549D" p-id="1222"></path></svg>