<svg class="icon" style="width: 1em; height: 1em;vertical-align: middle;fill: currentColor;overflow: hidden;" viewBox="0 0 1024 1024" version="1.1" xmlns="http://www.w3.org/2000/svg" p-id="897"><path d="M266.95111111 190.64832s5.86865778-5.86979555 14.67278222-8.80412445c0 0-2.93432889 8.80412445-14.67278222 8.80412445 2.93432889 2.93546667 11.73845333 2.93546667 14.67278222 11.73845333 0 0-5.86865778 5.86979555-14.67278222-2.93546666 0 0 5.86865778 8.80526222-5.86979556 14.67392 0 0-5.86979555-2.93432889 0-14.67278222 0 0-8.80412445 8.80412445-14.67392 8.80412444 0 0 0-5.86979555 14.67392-11.73959111 0 0-11.73845333 0-11.73845333-5.86865778 0 0 5.86865778-5.86979555 14.67278223 2.93546667 0 0-5.86865778-11.73959111 2.93546666-17.60938667 0-5.86979555 5.86865778 2.93546667 0 14.67392z m176.08248889 167.27836445c14.67392 5.87093333 11.73959111 11.73959111 5.87093333 14.67392-5.87093333-2.93546667-8.80526222-2.93546667-11.73959111-5.86979556 0 2.93546667 5.86865778 8.80412445 2.93432889 11.73959111s-5.86979555 0-8.80412444-2.93546667c0 0-2.93546667-5.86865778-2.93546667-8.80412444 0 0-11.73845333 8.80412445-17.60711111 2.93546666 0-5.86979555 8.80412445-8.80412445 11.73845333-8.80412444-2.93546667 0-14.67392-2.93546667-14.67392-5.86979556-2.93546667-2.93546667 0-2.93546667 2.93546667-2.93546666 5.86865778-2.93432889 11.73845333 0 17.60824889 2.93546666 0-2.93546667-5.86979555-8.80412445-2.93546667-11.73845333h2.93546667c2.93432889 0 5.86865778 2.93432889 5.86865777 2.93432889 2.93546667 2.93546667 2.93546667 5.86979555 2.93546667 8.80412444 0-2.93546667 8.80412445-5.86979555 8.80412445-5.86979555 5.86865778-2.93432889 11.73845333 2.93546667 5.86865778 5.86979555l-8.80412445 2.93546667z m-214.23445333 73.36846222c-5.86865778 2.93546667 2.93546667 11.73845333 2.93546666 14.67392h-11.73959111s5.86979555-11.73959111 0-14.67392c-11.73845333-5.86979555-26.41237333 8.80412445-32.28216889 2.93546666 8.80412445-2.93546667 11.73959111-14.67392 20.54371556-11.73959111 2.93546667 0 11.73845333 5.86979555 14.67392 5.86979556v-8.80412445c2.93432889 0 2.93432889 5.86865778 5.86865778 5.86865778 0 0 8.80412445-2.93432889 17.60824888-2.93432889 5.86979555 2.93546667 14.67392 11.73845333 14.67392 17.60824889-17.60824889-8.80412445-32.28216889-8.80412445-32.28216888-8.80412444z m434.33870222-61.62887112c20.54371555 17.60824889 29.34784 8.80412445 44.02062222 20.54257778 0-8.80412445-8.80412445-17.60824889-11.73845333-20.54257778 23.47804445 11.73845333 26.41237333 11.73845333 20.54257777 26.41237334-2.93432889 8.80412445 11.73959111-2.93546667 20.54371556 5.86979556-5.86979555 0-8.80412445 2.93432889-17.60824889 5.86865777-14.67392 8.80412445-23.47804445 0-32.28216889 8.80412445l-2.93546666-5.86865778s14.67392-2.93546667 14.67392-8.80412444c2.93546667-5.87093333-29.34670222 0-35.21649778-32.2821689z m187.82208 55.75907556c0-2.93432889 0-8.80412445 2.93546666-14.67278222 0 0-11.73959111 0-11.7395911 5.86865778-2.93432889 2.93546667 5.86979555 2.93546667 8.80412444 8.80412444z m-281.73312-108.58382222c-5.86865778 0-11.73845333 0-20.54257778-2.93546667 5.86979555 2.93546667 11.73845333 11.73959111 8.80412444 14.67392 5.86979555-2.93546667 11.73845333-8.80412445 11.73845334-11.73845333z m-17.60824889 17.60824889c-5.86979555 2.93432889-11.73845333 0-14.67392-2.93546667 5.87093333-2.93546667 5.87093333-5.86865778 5.87093333-8.80412444 0 5.86979555 2.93319111 8.80412445 8.80298667 11.73959111z m-23.47804445-14.67392z m-290.53724444 67.49866667c-8.80412445-11.73959111-2.93546667-14.67392 2.93546667-11.73959112 2.93432889 2.93546667 2.93432889 5.87093333 5.86865777 8.80412445 0-2.93432889 0-8.80412445 5.86979556-11.73845333 2.93546667 0 5.86979555 2.93546667 5.86979556 5.86979555v8.80412445s11.73845333 0 14.67278222 5.86979555c-2.93432889 2.93432889-2.93432889 0-14.67278222 2.93432889 5.86865778 0 11.73845333 8.80412445 5.86865778 11.73845333-5.86865778 2.93546667-8.80412445-2.93546667-11.73845334-8.80412444 0 2.93546667 2.93546667 8.80412445-2.93546666 11.73959111-2.93432889 0-5.86865778-2.93546667-5.86865778-5.87093334s0-5.86865778 2.93546666-8.80298666c-8.80526222 5.86979555-17.60938667-8.80412445-8.80526222-8.80412444z m311.07982222 2.93546666c-14.67278222-2.93546667-29.34670222 14.67278222-29.34670222 14.67278222 2.93546667-14.67392 2.93546667-14.67392 5.87093334-17.60824888 2.93319111-5.86979555 20.54144-2.93546667 20.54144-5.86979556v-8.80412444l5.87093333 2.93546666c5.86865778 0 5.86865778-11.73959111 14.67278222-14.67392 8.80412445-2.93546667 14.67392 0 23.47804445 2.93546667-17.60824889 2.93319111-29.34784 11.73731555-26.41237334 20.54144 0 2.93546667 5.86865778 5.87093333 5.86865778 5.87093333l-14.67278222 8.80298667c0 2.93546667 0-2.93546667-5.87093334-8.80412445zM516.4032 372.59946667c2.93546667-2.93546667 0-2.93546667 0-5.86979556l-2.93546667-5.86865778 2.93546667-2.93546666 5.86979555 2.93546666s0 2.93546667 2.93546667 2.93546667h2.93319111s0-2.93546667-2.93432888-2.93546667h-2.93546667l-8.80298667-2.93546666v-5.86865778l5.86865778-2.93546667h2.93546666s2.93546667 0 2.93546667-2.93432889c0 0-2.93546667-2.93546667-2.93546667 0 0 0 0 2.93546667-2.93546666 2.93546667l-5.86865778 2.93432889c0-2.93546667-2.93546667-2.93546667-2.93546666-2.93546667l2.93546666-5.86865777s2.93432889 0 2.93432889-2.93546667v-2.93432889h-2.93546667v2.93546666l-2.93432888 5.86865778s-2.93432889-2.93546667-5.86865778-2.93546666v-5.86865778l2.93432888-2.93546667s0-2.93432889-2.93546666-2.93432889c0 0-2.93432889 0-2.93432889 2.93546667l2.93546667 2.93432889v5.86979556c-2.93546667 0-2.93546667 0-5.87093334 2.93432888l-2.93319111-5.86979555v-2.93432889h-2.93546667v2.93546666s2.93546667 0 2.93546667 2.9343289l2.93432889 5.86865777-2.93546666 2.93546667-5.86865778-2.93546667s0-2.93432889-2.93546667-2.93432889h-2.93432889s0 2.93546667 2.93546667 2.93546667h2.93432889l5.86979555 2.93432889v5.86865778l-5.87093333 2.93546666h-2.93319111s-2.93546667 0-2.93546667 2.93546667c0 0 2.93546667 2.93319111 2.93546667 0 0 0 0-2.93546667 2.93432889-2.93546667l5.86979555-2.93546666c0 2.93546667 2.93432889 2.93546667 2.93432889 2.93546666l-2.93546666 5.86865778h-2.9343289v2.93546667h2.93546667v-2.93546667l2.93432889-5.86865778s2.93546667 2.93546667 5.86979556 2.93546667v5.86865778l-2.93546667 2.93546667s0 2.93319111 2.93546667 2.9331911c0 0 2.93432889 0 2.93432888-2.93432888l-2.93546666-2.93546667v-5.86865778h5.87093333l2.93432889 5.86979556c2.93432889 0 0 0 2.93432889 2.93546667z m-152.60558222 17.60824888c0-2.93546667 0-2.93546667 0 0l-5.86979556-8.80412444h-5.86865777v5.86979556l2.93432888 2.93546666s0 2.93432889-2.93546666 2.93432889-2.93432889 0-2.93432889-2.93546667 2.93546667-2.93546667 2.93546667-2.93546666v-5.86865778c-2.93546667 0-2.93546667 0-5.86979556-2.93546666l-5.86979556 5.87093333v2.93432889s-2.93432889 2.93546667-2.93432888 0v-2.93546667h2.93546666l5.86865778-5.86865778-2.93546667-2.93546667-8.80298667 2.93546667s0 2.93546667-2.93546666 2.93546667h-2.93546667s0-2.93546667 2.93546667-2.93546667h2.93546666l8.80412445-2.93546667v-2.93432888l-8.80412445-2.93546667h-2.93546666s-2.93546667 0-2.93546667-2.93432889c0 0 2.93546667-2.93432889 2.93546667 0 2.93546667 0 2.93546667 2.93546667 2.93546666 2.93546667l8.80412445 2.93546667c0-2.93546667 2.93432889-2.93546667 2.93432889-2.93546667l-5.86979556-5.86979556s-2.93432889 0-2.93432888-2.93546667v-2.93432888h2.93546666v2.93546666l5.86865778 5.86865778c2.93546667 0 2.93546667-2.93432889 5.86979556-2.93432889v-5.86979555l-2.93546667-2.93432889s0-2.93546667 2.93546667-2.93546667 2.93432889 0 2.93432888 2.93546667-2.93546667 2.93546667-2.93546666 2.93546667v5.86865777c2.93546667 0 2.93546667 0 5.87093333 2.93546667l5.86865778-5.87093334v-2.93432888s2.93546667-2.93432889 2.93546667 0v2.93546666h-2.93546667l-5.86979556 5.86865778c2.93546667 0 2.93546667 2.93546667 2.93546667 2.93546667l8.80412444-2.93546667s0-2.93432889 2.93546667-2.93432889h2.93319111s0 2.93546667-2.93432889 2.93546667h-2.93546667l-8.80298666 2.93432889v5.86865777l8.80412444 2.93546667h2.93546667s2.93319111 0 2.93319111 2.93546667c0 0-2.93432889 2.93319111-2.93432889 0-2.93546667 0-2.93546667-2.93546667-2.93546667-2.93546667l-8.80298666-2.93546667c0 2.93546667-2.93546667 2.93546667-2.93546667 2.93546667l5.87093333 5.86865778s2.93319111 0 2.93319112 2.93546667l-2.93432889 2.93546666c0 5.86865778 0 5.86865778 0 0z m-49.89041778 20.54371556c11.73959111 5.86865778 8.80412445 8.80412445 5.86979555 11.73845334-5.86979555 0-5.86979555-2.93546667-8.80412444-5.86979556 0 2.93546667 2.93546667 5.86979555 0 8.80412444-2.93546667 2.93546667-5.86979555 0-5.86979556-2.93432888 0 0-2.93546667-2.93546667-2.93546666-5.86979556 0 0-8.80298667 5.86979555-11.73845334 2.93546666 0-2.93546667 5.87093333-5.87093333 8.80412445-8.80412444-2.93432889 0-11.73845333-2.93546667-11.73845333-2.93546666-2.93546667-2.93546667 0-2.93546667 0-2.93546667 5.86979555-2.93319111 8.80412445 0 14.67392 2.93546667 0-2.93546667-5.86979555-5.86865778 0-8.80412445h2.93546666c2.93432889 0 2.93432889 0 5.86865778 2.93546667s2.93546667 5.86865778 2.93546667 8.80412444c0-5.87093333 2.93432889-5.87093333 2.93432889-5.87093333 5.86865778-2.93319111 8.80412445 2.93546667 5.86865778 5.87093333h-8.80412445zM780.52693333 261.08131555c2.93546667-5.86979555 5.86979555-8.80412445 8.80412445-8.80412444 2.93546667 2.93546667 0 8.80412445-8.80412445 8.80412444 8.80412445 0 14.67392 0 14.67392 2.93546667s-5.86979555 5.86865778-14.67392-2.93546667c8.80412445 8.80412445 8.80412445 14.67392 5.86979556 14.67392-2.93546667 0-5.86979555-2.93546667-5.86979556-14.67392-2.93546667 11.73845333-5.86979555 11.73845333-8.80412444 11.73845334-2.93546667-2.93432889-2.93546667-5.86865778 5.86979556-11.73845334-8.80412445 2.93546667-11.73959111 0-11.73959112-2.93546666s5.86979555-2.93432889 11.73959112 0c-2.93546667-2.93432889-5.86979555-8.80298667 0-11.73845334 0 2.93546667 2.93546667 8.80412445 2.93546666 14.67392z m129.12753778 129.12753778c5.86979555-5.86979555 14.67392-8.80412445 17.60824889-2.93546666 5.86979555 5.87093333-5.86865778 8.80526222-14.67278222 8.80526222 8.80412445 0 17.60824889 5.86979555 14.67278222 11.73845333-2.93432889 5.86979555-11.73845333 2.93546667-17.60824889-8.80412444 5.86979555 8.80412445 2.93546667 17.60824889-2.93546666 14.67392-5.86865778 0-8.80298667-8.80412445-2.93319112-17.60824889-5.87093333 8.80412445-14.67392 8.80412445-17.60938666 5.86979556-2.93432889-5.87093333 0-8.80412445 14.67392-8.80412445-11.73845333-2.93546667-17.60824889-8.80526222-14.67392-11.73959111 2.93546667-2.93546667 11.73959111 0 17.60938666 5.86979556-2.93546667-5.86979555-2.93546667-14.67392 5.86865778-14.67392 5.86979555 2.93546667 8.80412445 11.73845333 0 17.60824888z m-41.08515556-58.69454222c2.93432889-8.80412445 8.80298667-11.73845333 11.73845334-11.73845333 5.86865778 2.93546667 2.93546667 8.80412445-11.73959111 11.73845333 11.73959111-2.93546667 17.60824889-2.93546667 17.60824889 2.93546667s-8.80412445 5.86865778-17.60824889-2.93546667c8.80412445 8.80412445 11.73959111 17.60824889 5.87093333 17.60824889-5.87093333 2.93546667-8.80526222-2.93432889-5.87093333-17.60824889-2.93432889 11.73959111-8.80412445 17.60824889-11.73845333 14.67392-2.93546667-2.93546667-2.93546667-8.80412445 11.73845333-14.67392-11.73845333 2.93546667-17.60824889 0-17.60824889-2.93546666 0-5.86865778 8.80412445-5.86865778 17.60824889-2.93319112-2.93432889-2.93546667-8.80412445-11.73959111 0-14.67392 0 5.86979555 5.87093333 8.80412445 0 20.54257778z m-173.14929777-70.43299556c8.80412445-8.80412445 20.54257778-11.73845333 26.41237333-5.86979555 5.86979555 8.80412445-8.80412445 11.73959111-20.54257778 11.73959111 11.73845333 2.93432889 23.47804445 8.80412445 17.60824889 14.67278222s-14.67392 2.93546667-23.47804444-8.80412444c5.86979555 11.73959111 0 23.47804445-5.86979556 23.47804444-8.80412445 0-8.80412445-11.73845333 0-23.47804444-8.80412445 11.73959111-20.54257778 11.73959111-23.47690667 8.80412444-5.87093333-5.86865778 0-14.67278222 20.54257778-14.67278222-14.67392-2.93546667-23.47804445-8.80412445-20.54257778-14.67392 5.86865778-5.86979555 14.67278222 0 23.47690667 8.80412444-2.93432889-5.86979555-2.93432889-23.47804445 8.80412445-20.54257777 2.93546667 0 5.87093333 8.80412445-2.93432889 20.54257777z m-161.40970667-111.51928888c2.93546667-5.86979555 8.80412445-11.73845333 11.73845334-8.80412445 5.87093333 0 0 8.80412445-11.73845334 8.80412445 11.73845333 0 17.60824889 2.93546667 17.60824889 5.86979555s-5.86979555 5.86865778-14.67392 0c5.87093333 5.86865778 8.80412445 11.73845333 2.93546667 11.73845333s-8.80412445-2.93546667-8.80412445-11.73845333c0 8.80412445-8.80412445 11.73845333-11.73959111 8.80412445-5.86865778-2.93546667-5.86865778-5.87093333 5.87093334-11.73959112-8.80526222 2.93546667-14.67505778 0-14.67505778-2.93546666s8.80412445-2.93319111 17.60824888 0c-5.86865778-2.93319111-8.80412445-8.80298667-2.93432888-11.73731556 5.86979555-2.93546667 8.80412445 2.93432889 8.80412444 11.73845334z m-134.99733333 61.62887111c0-5.86979555-17.60824889-17.60824889-29.34670223-17.60824889 14.67278222-5.86979555 20.54257778-2.93546667 20.54257778-2.93546667 8.80412445 2.93546667 11.73959111 17.60938667 17.60824889 14.67392 2.93546667 0 5.86979555-5.86865778 5.86979556-5.86865777v8.80412444c0 5.86865778 17.60824889 0 23.47804444 5.86865778 0 0 5.86865778 5.87093333 8.80412445 20.54371555-8.80412445-14.67392-26.41237333-20.54371555-35.21649778-17.60824889-2.93546667 2.93546667 0 8.80412445 0 8.80412445-2.93546667-5.86979555-8.80412445-8.80412445-14.67392-8.80412445-2.93546667 0 2.93546667-2.93546667 2.93546666-5.86979555z m73.36846222 64.56433777c2.93546667-11.73959111 14.67392-20.54371555 20.54257778-17.60824888 8.80412445 5.86865778-2.93546667 14.67278222-14.67278223 20.54257778 11.73845333-2.93546667 26.41237333-2.93546667 26.41237334 5.86979555s-11.73959111 8.80412445-26.41237334 2.93546667c11.73845333 8.80298667 11.73845333 20.54257778 5.86865778 23.47690666-8.80412445 2.93546667-14.67392-5.86979555-11.73845333-20.54371555-2.93546667 14.67392-14.67392 20.54371555-20.54371555 17.60938667-8.80412445-2.93546667-5.86865778-11.73959111 14.67392-20.54371556-17.60824889 5.86979555-26.41237333 2.93546667-26.41237334-2.93546667s14.67392-8.80298667 26.41237334-2.93432889c-8.80412445-2.93432889-11.73845333-17.60824889-2.93546667-20.54257778 5.87093333-8.80412445 14.67505778 0 8.80526222 14.67392z m-129.12753778-8.80412444c-2.93546667-5.86979555-2.93546667-11.73959111 0-11.73959111 5.86865778 0 5.86865778 5.86979555 0 11.73959111 5.86865778-5.86979555 11.73845333-8.80412445 14.67278223-5.86979556 2.93546667 2.93546667 0 8.80412445-11.73845334 8.80412445 8.80412445 0 14.67392 2.93546667 11.73845334 8.80412445-2.93432889 2.93546667-8.80412445 2.93546667-14.67278223-5.86979556 5.86865778 5.87093333 2.93432889 11.73959111 0 11.73959111-5.86979555 0-8.80412445-2.93546667-2.93546667-11.73959111-5.86865778 5.87093333-11.73845333 8.80412445-11.73845333 5.87093333 0-5.87093333 2.93546667-8.80526222 14.67392-11.73959111-8.80412445 2.93432889-14.67392 0-11.73959111-5.86979556 0-2.93546667 5.86979555-2.93546667 11.73959111 5.86979556z m-132.06186667 26.41237334c0-5.86979555 5.86865778-11.73959111 8.80298667-8.80412445 2.93546667 2.93546667 0 5.86865778-8.80412444 8.80412445 8.80412445 0 14.67392 0 14.67392 5.86865777 0 2.93546667-5.86979555 5.87093333-11.73959111 0 5.87093333 5.87093333 5.87093333 11.73959111 2.93546666 11.73959111s-5.86979555-2.93546667-5.86979555-11.73959111c0 8.80526222-5.86979555 11.73959111-8.80412445 8.80526223-2.93546667-2.93546667-2.93546667-5.87093333 5.86979556-11.73959112-5.86979555 2.93546667-11.73959111 0-11.73959111-2.93546666s5.87093333-2.93432889 11.73959111 0c-2.93546667-2.93432889-5.86979555-11.73845333-2.93546667-11.73845334 0 0 5.87093333 2.93546667 5.87093333 11.73959112z m-76.30392888 14.67392c0-8.80526222 5.86979555-11.73959111 8.80412444-11.73959112 5.86979555 2.93546667 0 8.80412445-5.86865778 11.73959112 5.86865778-2.93546667 14.67278222-2.93546667 14.67278222 2.93432888s-5.86865778 5.86979555-14.67278222 2.93546667c8.80412445 5.86865778 8.80412445 11.73845333 5.86865778 11.73845333-2.93546667 2.93432889-8.80412445-2.93546667-8.80412444-11.73959111 0 8.80412445-5.86979555 11.73959111-8.80412445 11.73959111-5.86979555-2.93546667-5.86979555-5.87093333 5.86979556-14.67392-8.80412445 2.93546667-14.67392 2.93546667-14.67392 0s5.86979555-5.86979555 14.67392-2.93546666c-5.86979555 0-11.73959111-8.80412445-5.86979556-8.80412445 2.93546667-2.93432889 8.80412445 0 8.80412445 8.80526223z m79.23712 32.2810311c5.87093333-11.73845333 14.67392-17.60824889 20.54371555-11.73845333 8.80412445 5.86979555-2.93546667 14.67392-14.67392 17.60824889 11.73959111-2.93546667 23.47804445 0 23.47804445 8.80412444-2.93546667 5.86979555-11.73845333 8.80412445-23.47804445-2.93546666 8.80412445 8.80526222 8.80412445 20.54371555 2.93546667 20.54371556-8.80526222 0-11.73959111-5.86979555-8.80526222-20.54257778-2.93432889 11.73845333-14.67278222 17.60824889-17.60824889 14.67278222-5.86865778-5.86865778-5.86865778-11.73845333 14.67392-17.60824889-14.67392 2.93546667-23.47804445-2.93432889-23.47804445-8.80412445 0-5.86865778 14.67392-5.86865778 26.41237334 0-8.80412445-2.93432889-11.73845333-14.67278222-2.93432889-17.60824888 0-5.86865778 5.86979555 0 2.93546667 17.60824888z m-90.97671112 73.36846223c-5.86865778 0-20.54257778 14.67392-23.47690666 26.41237333-5.86979555-11.73845333-2.93546667-17.60824889-2.93546667-17.60824889 2.93546667-8.80412445 20.54371555-11.73845333 20.54371556-14.67392s-2.93546667-8.80412445-2.93546667-8.80412444l8.80526222 2.93546667c5.86865778 0 0-17.60938667 8.80412445-20.54371556 0 0 5.86979555-5.86979555 23.47804444-5.86979556-14.67392 5.87093333-23.47804445 23.47804445-20.54371555 32.28216889 2.93546667 2.93546667 8.80412445 2.93546667 8.80412444 2.93546667-5.86865778 2.93432889-8.80412445 8.80412445-11.73845333 14.67278222-2.93546667 0-5.86979555-11.73845333-8.80412445-11.73845333z m469.55633778-176.08248889c-2.93546667-2.93546667-26.41237333 8.80298667-26.41237333 8.80298666 2.93546667-5.86865778 5.86979555-14.67278222 5.86979555-14.67278222 5.86865778-2.93546667 14.67278222 0 17.6082489-2.93546666v-5.86865778l5.86865777 2.93432889c2.93546667 0 8.80412445-8.80412445 14.67392-8.80412445 0 0 8.80412445 5.86979555 17.60824889 5.86979556-11.73845333 0-26.41237333 5.86865778-26.41237333 11.73845333 0 2.93546667 5.86979555 5.86979555 5.86979555 5.86979556l-14.67392 5.86865777s5.86979555-5.86865778 0-8.80412444z m225.97404445 14.67278222c17.60824889 20.54257778 26.41237333 11.73845333 38.15082667 23.47804444 0-8.80412445-8.80412445-20.54371555-8.80412445-23.47804444 20.54257778 11.73845333 23.47804445 14.67392 17.60824889 26.41237334-2.93546667 8.80412445 11.73845333-2.93546667 20.54257778 8.80412444-5.86865778 0-8.80412445 2.93546667-14.67278222 5.86979556-14.67392 5.86865778-20.54371555-2.93546667-29.34784 2.93546666l-8.80412445-2.93546666s14.67392-2.93546667 14.67392-5.86979556c2.93546667-2.93546667-29.34670222-2.93546667-29.34670222-35.21649778z m-446.07715556 14.67392c-5.87093333-11.73959111-11.73959111-11.73959111-14.67505777-8.80412444-5.86865778 5.86865778 5.87093333 11.73845333 11.7395911 14.67278222-11.73959111 0-17.60824889 5.87093333-14.67392 11.73959111s11.73845333 2.93546667 17.6082489-5.86979555c-8.80412445 14.67392-2.93546667 20.54257778 2.93546666 20.54257777 2.93432889 0 8.80298667-8.80412445 2.93432889-17.60824889 5.86865778 11.73959111 14.67392 14.67392 17.60824889 8.80412445 2.93546667-5.86865778-2.93546667-11.73845333-14.67392-14.67278223 11.73959111 0 17.60824889-5.86979555 14.67392-11.7395911-2.93546667-5.86865778-11.73959111-2.93432889-17.60824889 5.86979555 5.86865778-8.80412445 5.86865778-17.60824889 0-17.60824889-8.80412445-2.93546667-11.73959111 2.93546667-5.86979555 14.67392z m234.77703111 52.82474667c-5.86979555-8.80412445-14.67392-17.60824889-26.41237333-14.67392-2.93546667 0-5.87093333 2.93546667-8.80412445 5.86979555 0-2.93546667-8.80412445-8.80412445-23.47804444-2.93546666 5.86979555-5.86865778 11.73845333-20.54257778 2.93546667-23.47690667-5.87093333-2.93546667-11.73959111 8.80412445-14.67505778 20.54257778-2.93432889-11.73845333-11.73845333-20.54257778-17.60824889-17.60824889-5.86865778 2.93546667-2.93432889 14.67392 5.87093334 20.54371556-11.73959111 0-17.60938667 0-23.47918223 5.86865777 0 2.93546667-2.93546667 5.86979555 2.93546667 8.80412445-5.87093333 0-8.80412445 0-11.73959111 2.93546666-2.93546667 0-8.80412445 0-8.80412445 8.80412445s-5.86865778 5.86865778-5.86865778 2.93432889c2.93432889-8.80412445 2.93432889-20.54257778 2.9343289-20.54257778-8.80412445 2.93432889-14.67392 17.60824889-14.67392 29.34670222 0 2.93546667-2.93546667 2.93546667-2.93546667 0 2.93546667-14.67392-2.93432889-23.47804445-8.80298667-29.34670222 0 2.93432889 0 2.93432889-2.93546666 5.86865778 0-2.93546667-2.93432889-5.86865778-5.86865778-5.86865778 2.93546667 14.67278222-2.93546667 17.60824889 2.93546666 32.28103111-11.73959111-2.93432889-5.87093333-17.60824889-17.60938666-23.47690667 0 5.86865778-8.80412445 8.80412445-11.73845334 5.86865778 2.93432889 0 8.80412445-2.93546667 8.80412445-5.86865778-2.93546667-2.93546667-5.86979555-2.93546667-11.73959111-2.93546666 2.93546667 0 5.86979555-2.93546667 8.80412444-5.86865778-5.86865778 0-5.86865778-5.87093333-2.93432889-8.80412444h-5.86979555v-5.87093334s-2.93546667 0-2.93546667 2.93546667v-5.86979556c-2.93319111 0-2.93319111 2.93546667-5.86865778 5.87093333v-5.87093333c-5.86865778 2.93546667-5.86865778 8.80526222-8.80412444 11.73959111 0-2.93546667-2.93546667-5.86979555-2.93546667-5.86979555s-2.93319111 2.93546667-2.93319111 8.80412444c0 0 0-5.86865778-2.93546667-5.86865777-2.93546667 5.86865778-2.93546667 11.73845333 2.93546667 20.54257777 2.93432889 2.93546667 5.86865778 2.93546667 5.86865778 5.86979556 2.93546667 11.73845333-17.60824889 14.67278222-17.60824889 14.67278222 5.86979555-5.86865778 11.73959111-14.67278222 8.80412444-20.54257778-5.86979555 0-8.80412445 5.86979555-11.73845333 8.80412445 0-2.93546667 2.93546667-11.73845333 2.93546667-17.60824889-5.87093333 2.93546667-8.80526222 8.80412445-8.80526222 11.73845333 0-5.86865778 0-5.86865778-2.93546667-8.80412444-5.86865778-5.86865778-20.54257778-8.80412445-26.41123556 8.80412444 0-2.93546667-8.80412445-5.86865778-8.80412444-5.86865778 0 5.86865778 2.93432889 11.73845333 5.86865777 14.67278222-5.86865778-8.80412445-11.73845333-11.73845333-14.67278222-11.73845333 0 5.86979555 5.86865778 11.73845333 8.80412445 17.60824889-11.73959111-11.73845333-20.54371555-2.93546667-20.54371556 2.93546667 0-11.73959111-8.80412445-17.60938667-8.80412444-17.60938667-11.73845333 14.67392-5.86979555 26.41237333-2.93546667 29.34784-2.93432889 11.73845333-17.60711111 5.86865778-11.73845333-2.93546666 2.93546667-2.93432889-2.93432889-11.73845333-14.67278223-2.9343289 14.67278222-11.73845333-8.80412445-20.54257778-8.80412444-2.93546666-2.93546667-17.60711111-26.41237333-2.93432889-8.80412444 5.87093333-17.60824889-5.87093333-20.54371555 14.67278222 0 8.80298667-2.93546667 2.93546667-5.86979555 8.80412445 0 11.73959111 5.86865778 2.93546667 8.80412445-5.86979555 8.80412444-8.80412445 2.93432889 5.86865778 8.80412445 8.80412445 14.67278222 5.86865778 2.93546667-2.93432889 5.87093333 0 5.87093334 2.93546667s-2.93546667 5.86865778-11.73959112 2.93546667c2.93546667 14.67278222-8.80412445 17.60711111-14.67392 8.80298666-2.93546667-5.86979555-20.54257778-8.80412445-20.54257777-8.80412444 2.93432889 8.80412445-11.73959111 26.41237333-20.54371556 17.60824889-2.93546667-2.93546667 2.93546667-8.80412445 2.93546667-8.80412445 8.80412445-8.80412445-20.54371555-14.67392-20.54371556-2.93546666-2.93546667 0-8.80412445-2.93432889-11.73845333 0 5.86865778-2.93432889 8.80412445-14.67278222 5.86865778-14.67278222-5.86865778-2.93546667-11.73845333 5.86979555-11.73845333 11.73845333 0-8.80412445-5.86979555-17.60824889-11.73845334-14.67278223-5.86979555 2.93546667-2.93546667 11.73845333 2.93432889 17.6082489-8.80412445-2.93546667-17.60824889-5.86979555-17.60824889 0-2.93546667 5.86979555 11.73845333 8.80412445 17.60824889 5.86979555-5.86979555 5.86865778-8.80412445 17.60824889-2.93546667 17.60824889 5.87093333 2.93432889 11.73959111-2.93546667 11.73959112-11.73959111 0 2.93546667 0 5.86979555 2.93546666 8.80412444-2.93546667 2.93546667-5.87093333 8.80412445-11.73959111 11.73959111-11.73845333 5.86865778-17.60824889 2.93432889-17.60824889 11.73845334 0 5.86979555 11.73845333 5.86979555 20.54257778-2.93546667 11.73959111-11.73845333 20.54371555 8.80526222 8.80412444 14.67392-2.93432889 2.93546667-8.80412445 0-11.73845333-2.93432889-14.67392-2.93546667-14.67392 8.80412445 0 17.60824889L510.53226667 689.55022222 824.54755555 466.51164445c2.93546667-2.93546667 5.86979555-5.86979555 11.73959112-8.80412445l20.54257778 2.93546667s-5.86979555-5.87093333-2.93546667-11.73959112 14.67392-11.73845333 41.08743111-5.86979555c-8.80526222-11.73845333-11.73959111-14.67278222-11.73959111-14.67278222-8.80412445-2.93546667-14.67392 2.93432889-23.47804445 2.93432889 0-2.93546667-2.93432889-2.93546667-5.86865778-2.93546667l-5.86979555-5.86865778s0 2.93546667-5.86979555 8.80412445c-11.73845333 2.93546667-26.41237333 5.86979555-23.47690667-2.93546667 0-8.80298667 2.93432889-8.80298667 11.73845333-8.80298667 2.93546667 0 8.80412445 0 14.67392-2.93546666 0 0 2.93432889 0 2.93432889-2.93546667 0 2.93546667 2.93546667 5.87093333 8.80412445 2.93546667 5.86979555-2.93546667 5.86979555-8.80412445 2.93546666-17.60824889 2.93432889 5.86979555 14.67278222 14.67392 17.60711111 11.73959111 2.93546667-2.93546667-2.93432889-11.73959111-11.73845333-17.60824889 0 0 17.60824889 0 17.60824889-8.80526222s-17.60824889-2.93432889-20.54257778 0c2.93546667-5.86865778 2.93546667-17.60824889-2.93546667-17.60824889s-8.80412445 11.73959111-5.86865778 17.60824889c-2.93546667-11.73845333-14.67392-17.60824889-17.60824888-11.73845333s5.86865778 14.67392 11.73845333 17.60824888c-14.67392 2.93546667-17.60824889 14.67392-32.28216889 11.73959112 8.80412445-5.87093333 11.73959111-14.67392 5.86979556-17.60938667-2.93546667-5.86865778-14.67392-2.93432889-17.60824889 8.80526222 0-8.80526222-5.86979555-11.73959111-8.80412445-8.80526222-2.93546667 2.93546667 0 8.80526222-2.93546666 11.73959111h2.93546666c8.80412445 0 2.93546667 11.73845333-5.86979555 20.54257778 8.80412445-8.80412445 23.47804445-11.73845333 23.47804444-5.86865778 2.93546667 5.86865778-8.80412445 14.67278222-23.47804444 11.73845333 11.73845333 2.93546667 17.60824889 11.73845333 11.73845333 17.60824889-5.86865778 5.86979555-14.67278222 0-17.60824889-11.73845333 2.93546667 11.73845333-5.86865778 20.54257778-11.73845333 20.54257777-8.80412445 0-11.73845333-5.86979555 5.86979556-23.47804444-11.73959111 11.73959111-23.47804445 11.73959111-23.47804445 5.86979556s8.80412445-11.73845333 23.47804445-11.73845334c-8.80412445 0-17.60824889-8.80412445-8.80412445-17.60824888 5.86865778-2.93546667 14.67278222-2.93546667 14.67278222 11.73845333 0-5.86979555 0-11.73845333 2.93546667-14.67392 5.86865778-8.80412445 5.86865778-20.54257778 2.93546666-23.47804445-2.93546667 5.87093333-14.67505778 5.87093333-14.67505777 5.87093334-11.73845333 5.86865778-11.73845333 14.67278222-14.67278223 2.93319111-2.93546667-8.80412445 8.80412445-8.80412445 14.67278223-8.80412445l2.93546667 5.87093334c14.67278222-8.80526222 20.54257778 5.86865778 44.02062222-2.93546667 11.73845333-2.93546667 14.67392-8.80412445 23.47804444-5.86979555-8.80412445-14.67392-32.28216889-2.93546667-26.41237333-14.67392 8.80412445-14.67278222 5.86865778-20.54257778-20.54371556-41.08515556 2.93546667 2.93432889 11.73959111 20.54257778 8.80412445 32.28103111-11.73845333-20.54257778-26.41237333-8.80412445-49.89041778-41.08515555 0 46.95495111 41.08629333 46.95495111 38.15196444 52.82474666 0 2.93546667-8.80412445 5.86865778-14.67392 5.86865778v-2.93432889c0-2.93546667-5.86979555-14.67392-17.60824888-17.60824889-8.80412445-2.93546667-17.60824889 2.93546667-23.47804445 8.80412444-8.80412445 11.73845333-38.15082667 8.80412445-32.28216889-2.93546666 2.93546667-2.93432889 8.80412445 0 11.73959111-2.93432889-2.93546667 0 0-2.93432889-5.86979555-5.86865778 2.93546667 0 5.86979555-2.93546667 5.86979555-2.93546667-2.93546667 0-5.86979555 0-5.86979555-2.93432888 0 0 5.86979555 0 5.86979555-2.93546667 0-5.86865778-11.73959111-2.93432889-8.80412444-5.86865778 5.86865778-2.93546667 0-8.80412445-2.93546667-8.80412444-5.86865778 2.93546667-11.73845333 5.86979555-17.60824889 5.86979555 0 0 11.73959111-5.87093333 17.60824889-17.60824888-8.80412445 0-5.86865778-8.80526222-2.93432889-8.80526223-11.73845333 0-20.54257778 20.54371555-26.41237333 20.54371556 5.86979555-11.73845333 5.86979555-20.54371555 5.86979556-26.41237333-5.86979555 2.93546667-11.73959111 14.67392-14.67392 20.54257777 0 5.86979555-5.86979555 5.86979555-5.86979556 0-2.93546667-11.73845333-8.80412445-17.60824889-11.73845334-17.60824889-2.93546667 2.93546667-2.93546667 8.80412445-2.93546666 17.60824889-2.93432889-8.80412445-5.86865778-11.73845333-8.80298667-14.67392-11.73959111 11.73959111-11.73959111 26.41351111-11.73959111 26.41351111 2.93546667-5.87093333 8.80412445-5.87093333 11.73959111-5.87093333 5.86865778 2.93546667 0 11.73959111-11.73959111 14.67505778 8.80412445-2.93546667 20.54371555-2.93546667 20.54371556 2.93432889s-8.80412445 8.80412445-20.54371556 0c8.80412445 5.86979555 8.80412445 14.67392 2.93546667 17.60824888s-11.73959111-2.93546667-8.80526223-14.67392c-2.93432889 11.73959111-11.73845333 14.67392-14.67278222 14.67392-5.86979555-2.93546667-5.86979555-8.80412445 11.73845334-17.60824888-11.73845333 2.93546667-20.54257778 0-20.54257778-2.93546667 0-5.86865778 11.73845333-5.86865778 20.54257778-2.93432889-14.67392 0-17.60824889-8.80412445-11.73845334-11.73845333z m-73.36846222-76.30279111c2.93546667 5.86979555-8.80412445 11.73845333-8.80412444 11.73845333l20.54257778 8.80412445s0-8.80412445 2.93546666-11.73845334c5.86979555-8.80412445 26.41237333 2.93546667 44.02062222 14.67392-5.86979555-14.67392-11.73845333-26.41237333-11.73845333-26.41237333-8.80412445-8.80412445-26.41237333 0-29.34784-2.93546667v-8.80412444s-5.86979555 5.86979555-8.80412445 5.86979555c-5.86979555-2.93546667-14.67392-17.60824889-26.41237333-17.60824889 0 0-11.73845333 5.86979555-23.47804444 8.80412445 0-2.93546667 35.21649778 5.86979555 41.08629333 17.60824889z m155.53991111-38.15196445c5.87093333-2.93432889 14.67392-2.93432889 14.67392 0 0 5.87093333-5.86979555 5.87093333-14.67392 0 5.87093333 5.87093333 11.73959111 11.73959111 5.87093333 14.67392-2.93546667 2.93546667-8.80526222 0-11.7395911-8.80412444 0 8.80412445-2.93546667 11.73959111-8.80412445 11.73959111-2.93546667-2.93546667-2.93546667-8.80526222 2.93432889-11.73959111-8.80412445 2.93546667-14.67392 2.93546667-14.67392 0 0-5.86979555 2.93546667-8.80412445 14.67392-2.93546667-8.80412445-2.93432889-11.73845333-8.80298667-8.80412444-11.73845333 2.93546667-2.93432889 8.80412445 2.93546667 11.73845333 8.80412444 0-5.86865778 2.93546667-11.73845333 8.80412444-8.80412444 8.80412445 0 8.80412445 5.87093333 0 8.80412444z m-451.94695111 73.36846223c14.67392 35.21649778 44.02062222 23.47804445 44.02062222 26.41237333 0 5.86979555-14.67278222 11.73959111-14.67278222 11.73959111l5.86865778 5.86865778c5.87093333-11.73845333 17.60824889-2.93546667 32.28216889-14.67278222 5.86979555-5.87093333 8.80412445-11.73959111 14.67392-11.73959112-11.73845333-8.80412445-26.41237333 5.86979555-23.47804445-2.93546666 2.93546667-14.67278222 0-17.60711111-26.41237333-23.47690667 2.93546667 2.93546667 14.67392 11.73845333 17.60824889 20.54257778-17.60824889-8.80412445-23.47804445 5.87093333-49.89041778-11.73845333z" fill="#0065C1" p-id="898"></path><path d="M525.20618667 827.48302222c0 23.47690667-11.73845333 46.95608889-35.21649778 46.95608889-29.34784 0-38.15196445-23.47918222-38.15196444-46.95608889s8.80412445-46.95608889 38.15196444-46.95608889c26.41237333 2.93546667 35.21649778 26.41237333 35.21649778 46.95608889z m-85.10691556 55.75907556h11.73845334v-20.54257778c5.87093333 14.67278222 20.54371555 23.47690667 38.15196444 23.47690667 32.28216889 0 46.95608889-26.41237333 46.95608889-58.69340445s-14.67392-58.69454222-46.95608889-58.69454222c-14.67392 0-32.28216889 8.80412445-38.15196444 23.47690667v-61.62887112h-14.67278223v152.60558223h2.93432889z m190.75640889-44.02062223c0 17.60824889-14.67278222 32.28216889-38.15082667 32.2821689-11.73845333 0-23.47804445-8.80412445-23.47804444-20.54371556 0-26.41237333 20.54371555-26.41237333 41.08629333-32.28103111 8.80412445 0 17.60824889-5.87093333 17.60824889-5.87093333l2.93546667 26.4135111z m-70.43299555-49.89041777s17.60824889-5.86979555 38.15196444-5.86979556c14.67278222 0 26.41237333 2.93546667 26.41237333 14.67392 0 8.80412445-8.80412445 11.73959111-32.28216889 14.67392-23.47804445 2.93546667-41.08515555 14.67392-41.08515555 38.15082667 0 20.54371555 17.60711111 35.21649778 38.14968889 35.21649778 20.54371555 0 32.28216889-8.80412445 38.15196444-20.54257778v17.60824889h11.73959111v-76.30279111c0-29.34670222-20.54371555-35.21649778-41.08629333-35.21649778-26.41237333 0-41.08629333 8.80412445-41.08629334 8.80412444l2.93546667 8.80412445z m-358.03591112 93.91217777h23.47804445v-64.56433777c0-14.67392 11.73845333-29.34784 26.41237333-29.34784s20.54257778 5.86979555 20.54257778 23.47804444v67.49866667h23.47804444v-73.36846222c0-23.47804445-14.67392-35.21649778-38.15082666-35.21649778-14.67392 0-26.41237333 5.86979555-32.28216889 14.67392v-49.89155556h-23.47804445v146.73692445z m120.32341334-90.9767111h58.69454222l-61.62887111 73.36732444v17.60824889h96.84536889v-20.54257778h-64.5632l61.62887111-70.43413333v-17.60824889h-90.97671111z m340.42766222 90.9767111h14.67392v-64.56433777c0-20.54371555 14.67392-38.15196445 32.28216889-38.15196445 20.54257778 0 26.41237333 14.67392 26.41237333 32.28216889v67.49866667h14.67392v-67.49866667c0-26.41237333-8.80412445-41.08629333-38.15196444-41.08629333-14.67392 0-29.34670222 8.80412445-35.21649778 20.54257778v-17.60824889h-14.67392v108.58496z m108.58496 0h14.67392v-41.0874311l17.60824889-17.6082489 44.02062222 58.69454223h17.60824889l-49.89041778-70.43299556 46.95608889-38.15196444h-17.60824889l-58.69454222 52.82588444v-93.91217777h-14.67392z" fill="#717071" p-id="899"></path></svg>