<svg class="icon" style="width: 1em; height: 1em;vertical-align: middle;fill: currentColor;overflow: hidden;" viewBox="0 0 1024 1024" version="1.1" xmlns="http://www.w3.org/2000/svg" p-id="560"><path d="M483.11146667 351.04853333c134.81386667-60.528 233.86026667 11.00586667 264.1248 129.312 0 0-49.5232-24.76266667-96.29546667-13.7568-46.77226667 8.25386667-71.53386667-13.7568-79.78773333-22.01066666-2.752 13.7568 5.50293333 22.01066667 11.0048 33.01546666-8.25386667-2.752-19.25866667-8.25386667-35.7664-46.77226666-33.01546667-11.0048-57.77706667-33.01546667-63.28-79.78666667v-0.00106667z" fill="#E60012" p-id="561"></path><path d="M708.71786667 375.81013333c41.26933333 38.5184 79.78773333 90.7936 93.54453333 137.56586667 11.0048 41.26933333 19.25866667 60.528 35.7664 74.2848 16.50773333 13.7568 27.5136 13.7568 46.77333333 19.25866667 19.25866667 8.25386667 38.51733333 19.25973333 55.02506667 38.5184-96.29546667-33.01546667-151.3216 0-154.07253333 46.77333333-38.5184-49.52533333-5.50293333-121.05813333-22.01066667-187.08906667-11.0048-63.28-46.77226667-118.30613333-55.02613333-129.312zM513.376 571.15306667c-19.25973333-2.752-33.01546667 5.50293333-41.26933333 16.50773333l-2.752-19.25866667h-46.77226667v121.056h46.77333333v-66.03093333c0-19.25866667 35.76533333-22.0096 35.76533334 0v66.032h46.77333333v-71.53386667c0-2.752 0-11.00586667-2.752-16.50773333-5.50293333-13.7568-16.50773333-27.5136-35.7664-30.26453333z m203.59573333-13.7568h-52.27413333l-46.77333333 49.5232v-74.2848h-44.02026667v156.82453333h44.02133333v-27.5136l19.25866667-19.25866667 30.26453333 46.77226667h46.77226667l-46.77226667-79.78773333 49.5232-52.2752z m-514.4928 49.5232c16.50773333-8.25386667 27.51253333-19.25866667 27.51253334-30.26346667 0-27.5136-13.7568-41.26933333-49.5232-41.26933333h-99.04746667v159.5744h90.7936c52.27413333 0 66.03093333-16.50773333 66.03093333-41.26933334 2.752-30.26453333-13.7568-41.26933333-35.7664-46.77226666z m-77.0368-41.26933334h33.01546667c11.00586667 0 22.01066667 0 22.01066667 13.7568 0 11.0048-11.0048 16.50773333-22.01066667 16.50773334h-33.01546667v-30.26453334z m35.76746667 93.54453334H128.192v-33.01546667h33.01653333c16.50773333 0 27.51253333 2.752 27.51253334 16.50773333s-8.25386667 16.50773333-27.51253334 16.50773334h0.00106667z m236.6112-44.02133334c0-27.51253333-8.25386667-44.02133333-60.528-44.02133333h-2.752c-16.50773333 0-33.01546667-2.74986667-44.02133333 2.752-13.75573333 5.50293333-22.0096 19.25973333-24.76053334 33.01546667h46.7712c2.752-8.25386667 11.00586667-11.0048 19.25973334-13.75573334 11.0048 0 24.7616 2.75093333 24.7616 16.50773334-5.50293333 2.752-13.7568 2.752-24.7616 5.50186666-30.26453333 5.504-66.03093333 11.00586667-66.03093334 41.26933334 0 19.25973333 13.75573333 30.26453333 46.7712 30.26453333 8.25493333 0 16.5088-2.75093333 22.01066667-2.75093333 8.25386667-2.752 16.50773333-8.25386667 24.7616-11.0048 0 5.50186667 2.752 11.0048 5.50293333 16.50773333h38.51733334c0-2.752-2.74986667-8.25386667-2.74986667-11.00586667-2.752-2.75093333-2.752-63.28-2.752-63.28z m-68.78186667 52.2752c-11.00586667 2.752-19.25973333 0-22.01066666-11.0048-2.752-5.504 8.25386667-11.00586667 22.01066666-16.50773333 5.50186667-2.752 13.75573333-2.752 19.25866667-2.752 2.752 19.25973333-8.25386667 24.7616-19.25866667 30.26453333z" fill="#F08300" p-id="562"></path></svg>