<svg class="icon" style="width: 1em; height: 1em;vertical-align: middle;fill: currentColor;overflow: hidden;" viewBox="0 0 1024 1024" version="1.1" xmlns="http://www.w3.org/2000/svg" p-id="762"><path d="M845.09127111 448.90339555l-272.93013333-272.92899555c-20.54257778-20.54257778-20.54257778-46.95608889 0-67.49866667 20.54371555-20.54257778 46.95608889-20.54257778 67.49980444 0L912.5888 381.40586667c20.54257778 20.54257778 20.54257778 46.95495111 0 67.49752888-14.67392 20.54257778-46.95608889 20.54257778-67.49866667 0zM545.74876445 337.38524445L390.20885333 181.84419555c-20.54257778-20.54371555-20.54257778-46.95608889 0-67.49866666 20.54371555-20.54371555 46.95608889-20.54371555 67.49866667 0l155.53991111 155.53991111c20.54371555 20.54257778 20.54371555 46.95608889 0 67.49866667-17.60824889 17.60824889-46.95608889 17.60824889-67.49866666 0z m-90.97671112 90.9767111L299.23328 272.81976889c-20.54257778-20.54257778-20.54257778-46.95608889 0-67.49866667 20.54371555-20.54257778 46.95608889-20.54257778 67.49866667 0l155.54104888 155.54104889c20.54257778 20.54257778 20.54257778 46.95608889 0 67.49866667-20.54371555 17.60824889-49.89155555 17.60824889-67.49866666 0z m-93.90990222 90.97671112L205.32110222 363.79534222c-20.54257778-20.54257778-20.54257778-46.95608889 0-67.49866667 20.54371555-20.54257778 46.95608889-20.54257778 67.49866667 0L428.36195555 451.83772445c20.54257778 20.54371555 20.54257778 46.95608889 0 67.49866666-17.60824889 20.54371555-46.95608889 20.54371555-67.49866666 0z m-93.91217778 93.90990222L111.4112 457.70752c-20.54257778-20.54257778-20.54257778-46.95608889 0-67.49866667 20.54371555-20.54257778 46.95608889-20.54257778 67.49866667 0L334.44977778 545.74876445c20.54257778 20.54371555 20.54257778 46.95608889 0 67.49866666-14.67392 17.60824889-46.95608889 17.60824889-67.49866667 0z m578.14129778 17.60824889L689.55022222 475.31576889c-20.54257778-20.54257778-20.54257778-46.95608889 0-67.49866667 20.54371555-20.54257778 46.95608889-20.54257778 67.49866667 0L912.58993778 563.35928889c20.54257778 20.54257778 20.54257778 46.95608889 0 67.49752889-17.60824889 20.54371555-49.89155555 20.54371555-67.49866667 0z m-90.97671111 93.91217777L598.57464889 569.22680889c-20.54371555-20.54257778-20.54371555-46.95608889 0-67.49866667 20.54257778-20.54257778 46.95608889-20.54257778 67.49866666 0L821.61208889 657.26919111c20.54257778 20.54257778 20.54257778 46.95608889 0 67.49866667-20.54371555 20.54257778-49.89041778 20.54257778-67.49866667 0z m-93.91217778 93.91104L504.66474667 663.13784889c-20.54371555-20.54257778-20.54371555-46.95608889 0-67.49866667 20.54257778-20.54257778 46.95608889-20.54257778 67.49866666 0l155.53991112 155.54104889c20.54257778 20.54257778 20.54257778 46.95608889 0 67.49866667-20.54371555 17.60824889-49.89041778 17.60824889-67.49866667 0z m-93.90990222 93.91104L410.75256889 757.04888889c-20.54371555-20.54257778-20.54371555-46.95608889 0-67.49866667 20.54257778-20.54257778 46.95608889-20.54257778 67.49866666 0l155.53991112 155.54104889c20.54257778 20.54257778 20.54257778 46.95608889 0 67.49866667-20.54371555 17.60824889-46.95608889 17.60824889-67.49866667 0z m-181.95342222 2.9343289L111.4112 642.59413333c-20.54257778-20.54257778-20.54257778-46.95495111 0-67.49752888 20.54371555-20.54257778 46.95608889-20.54257778 67.49866667 0l272.93013333 272.92899555c20.54257778 20.54257778 20.54257778 46.95608889 0 67.49866667-20.54371555 17.60824889-49.89155555 17.60824889-67.49980445 0z" fill="#E60012" p-id="763"></path></svg>