<svg class="icon" style="width: 1em; height: 1em;vertical-align: middle;fill: currentColor;overflow: hidden;" viewBox="0 0 1024 1024" version="1.1" xmlns="http://www.w3.org/2000/svg" p-id="821"><path d="M586.83505778 821.61208889c-23.47690667 0-41.08515555 0-64.5632-5.86865778-23.47804445 0-41.08629333-5.86865778-64.56433778-11.73845333-23.47804445-5.86979555-41.08515555-17.60824889-64.5632-23.47804445-193.69187555-90.97671111-281.73425778-293.47157333-228.90951111-510.64149333-41.08515555 67.49866667-67.49752889 149.67125333-67.49752889 223.03857778v29.34784c5.86865778 143.80145778 85.10577778 275.86332445 217.16878222 349.23178667 46.95608889 29.34670222 96.84650667 46.95608889 149.67125333 52.82474666 23.47804445 0 41.08515555 5.86979555 64.5632 5.86979556 23.47804445 0 41.08629333 0 64.56433778-5.86979556 143.80145778-23.47804445 275.86332445-108.58496 337.49333334-269.99466666-99.78083555 102.71516445-217.16992 167.27950222-343.36312889 167.27950222z" fill="#ED1C24" p-id="822"></path><path d="M457.70752 208.25656889c23.47804445-5.86979555 41.08515555-5.86979555 64.56433778-5.86979556 23.47690667 0 41.08515555 0 64.5632 5.86979556C748.24476445 243.47306667 874.43911111 401.94844445 821.61322667 604.44330667c79.23712-85.10577778 120.32341333-343.36199111-90.97671112-469.5552-46.95608889-29.34670222-96.84536889-41.08515555-143.80145777-41.08515556-23.47690667 0-41.08515555 0-64.5632 5.86865778-23.47804445 5.86979555-41.08629333 11.73845333-64.56433778 23.47804444-96.84536889 46.95608889-173.14816 137.93166222-190.75640889 199.56053334 58.69454222-64.5632 129.1264-102.71516445 190.75640889-114.45361778z" fill="#ED1C24" p-id="823"></path><path d="M519.33639111 401.94844445l-61.62887111 17.60824888-61.62887111 23.47690667 61.62887111 181.95342222 61.62887111-14.67392 67.49866667-23.47804444 58.69454222-17.60824889-58.69454222-190.75640889z" fill="#ED1C24" p-id="824"></path></svg>