<svg class="icon" style="width: 1em; height: 1em;vertical-align: middle;fill: currentColor;overflow: hidden;" viewBox="0 0 1024 1024" version="1.1" xmlns="http://www.w3.org/2000/svg" p-id="1028"><path d="M636.72547555 428.36081778c55.76021333-44.02062222 120.32341333-44.02062222 140.8671289-41.08629333-8.80412445-26.41237333-46.95608889-108.58496-161.40970667-108.58496-64.56433778 0-108.58496 35.21649778-132.06186667 61.6288711-29.34784 35.21649778-38.15196445 73.36846222-38.15196444 96.84650667-8.80412445 99.77969778-61.63000889 146.73578667-67.49866667 152.60558223-58.69454222 46.95608889-120.32341333 44.02062222-140.86712889 38.15082666 11.73959111 26.41237333 49.89155555 111.51928889 164.34517334 108.58496 44.02062222-2.93546667 85.10577778-20.54371555 120.32341333-52.82474666 38.15082667-38.15196445 44.02062222-96.84650667 46.95608889-114.45475556 11.73845333-82.17144889 52.82360889-126.19320889 67.49752888-140.86599111m287.60291556-161.40970667c0-20.54371555-14.67392-32.28216889-14.67392-32.28216889l-88.04124444-67.49866667s-17.60824889-14.67392-17.60824889 8.80412445v278.79879111c0 20.54257778-5.86979555 82.17144889-58.69454223 129.12753778-64.56433778 52.82474667-132.06186667 49.89041778-155.5399111 44.02062222 11.73845333 26.41237333 58.69454222 108.58496 170.2138311 108.58496 99.77969778 0 167.27836445-88.04124445 167.27836445-170.21383111l-2.93432889-299.34136889zM278.68956445 434.22947555c64.56433778-52.82474667 132.06186667-49.89041778 155.5399111-44.02062222-11.73845333-26.41237333-58.69454222-108.58496-170.2138311-108.58496-99.77969778 0-167.27836445 88.04124445-167.27836445 170.21383112v305.21116444c0 20.54371555 14.67278222 32.28216889 14.67278222 32.28216889l88.04124445 67.49866667s17.60938667 14.67392 17.60938666-8.80412445V560.42268445c2.93546667-20.54257778 5.86979555-82.17144889 61.62887112-126.1932089" fill="#003F7B" p-id="1029"></path></svg>