<svg class="icon" style="width: 1em; height: 1em;vertical-align: middle;fill: currentColor;overflow: hidden;" viewBox="0 0 1024 1024" version="1.1" xmlns="http://www.w3.org/2000/svg" p-id="837"><path d="M639.66094222 425.42648889l88.04124445 67.49752889 199.56053333-261.18940445H786.39786667z" fill="#FAA61A" p-id="838"></path><path d="M586.83505778 504.66360889l-105.64949333 132.06186666L334.44977778 522.27185778l243.58115555-316.95075556 49.89155556-67.49752889H322.70904889L167.17027555 343.25390222c-99.78083555 129.1264-96.84536889 302.27569778 11.73845334 428.46890667 99.78083555 114.45361778 267.0592 143.80145778 396.18787556 82.17258666 17.60824889-11.73959111 35.21649778-17.60824889 52.82474666-32.28216888 11.73959111-5.86979555 20.54371555-17.60824889 32.28216889-26.41237334 5.86979555-5.86979555 32.28216889-35.21649778 35.21649778-38.15196444l67.49866667-85.10577778L889.11189333 507.5968H586.83505778z" fill="#FAA61A" p-id="839"></path><path d="M522.27185778 334.44977778l88.04124444 70.43299555L739.44177778 231.73461333H604.44444445z" fill="#FAA61A" p-id="840"></path></svg>