<svg class="icon" style="width: 1em; height: 1em;vertical-align: middle;fill: currentColor;overflow: hidden;" viewBox="0 0 1024 1024" version="1.1" xmlns="http://www.w3.org/2000/svg" p-id="1159"><path d="M915.52426667 416.62122667l-152.60558222-132.06186667h93.91104c-73.36846222-111.51928889-202.496-187.82208-343.36199112-187.82208-231.84384 0-416.73045333 187.82208-416.73045333 416.73045333 0 35.21649778 5.86865778 64.5632 8.80412445 96.84536889l173.14816 132.06186667h-111.5192889c73.36846222 108.58496 202.496 181.95342222 343.36199112 181.95342222 231.84384 0 416.73045333-187.82208 416.73045333-416.73045333 2.93546667-29.34670222 0-61.62887111-11.73845333-90.97671111z m-402.05653334 402.05653333c-167.27950222 0-305.21116445-137.93166222-305.21116444-305.21002667S346.18823111 208.25656889 513.46773333 208.25656889 818.67889778 346.18823111 818.67889778 513.46773333c-5.87093333 167.27836445-137.9328 305.21116445-305.21116445 305.21116445z" fill="#E60012" p-id="1160"></path><path d="M645.5296 346.18823111H381.40586667c-20.54371555 0-35.21763555 14.67392-35.21763556 35.21649778V645.5296c0 20.54371555 14.67392 35.21649778 35.21649778 35.21649778H645.5296c20.54371555 0 35.21649778-14.67278222 35.21649778-35.21649778V381.40586667c0-20.54371555-14.67278222-35.21763555-35.21649778-35.21763556z m-38.15082667 267.0592h-64.56433778v-79.23712H472.38257778v79.23712h-58.69454223V416.62122667h58.69454223v67.49866666h70.43299555v-67.49866666h64.56433778v196.62620444z" fill="#E60012" p-id="1161"></path></svg>