<svg class="icon" style="width: 1em; height: 1em;vertical-align: middle;fill: currentColor;overflow: hidden;" viewBox="0 0 1024 1024" version="1.1" xmlns="http://www.w3.org/2000/svg" p-id="971"><path d="M660.20352 633.79114667c0 17.60824889-11.73845333 29.34670222-29.34784 29.34670222h-99.77969778v267.0592h311.07982223c46.95608889 0 82.17258667-38.14968889 82.17258666-82.17144889v-316.95075555h-267.0592v102.71630222h2.93432889z m-26.41237333-272.93013334c17.60824889 0 29.34670222 11.73959111 29.34670222 29.34784v99.78083556h267.0592v-311.07982222c0-46.95608889-38.14968889-82.17258667-82.17144889-82.17258667h-311.07982222v267.0592h96.84536889v-2.93546667z m-272.93013334 29.34784c0-17.60824889 11.73959111-29.34670222 29.34784-29.34670222h99.78083556v-267.0592h-311.07982222c-46.95608889 0-82.17258667 38.14968889-82.17258667 82.17144889v314.01528889h267.0592v-99.78083556h-2.93546667z m26.41351112 269.99466667c-17.60824889 0-29.34784-11.73845333-29.34784-29.34784v-99.77969778H96.73728v311.07982223c0 46.95608889 38.15082667 82.17258667 82.17144889 82.17258666h311.07982222v-267.0592h-102.71402666v2.93432889z" fill="#E61F1F" p-id="972"></path></svg>