<svg class="icon" style="width: 1em; height: 1em;vertical-align: middle;fill: currentColor;overflow: hidden;" viewBox="0 0 1024 1024" version="1.1" xmlns="http://www.w3.org/2000/svg" p-id="1283"><path d="M466.51164445 228.79914667l-79.23712-79.23712c-64.56433778 64.5632-64.56433778 167.27950222 0 234.77703111l79.23712-79.23712c11.73959111-23.47804445 11.73959111-52.82474667 0-76.30279111z m11.7395911 82.17258666l-79.23825777 79.23712c64.56433778 64.56433778 167.27950222 64.56433778 234.77816889 0L554.55288889 310.97173333c-32.28216889-5.86979555-52.82588445-5.86979555-76.30279111 0z m79.23712-5.86979555l79.23712 79.23712c64.56433778-64.5632 64.56433778-167.27836445 0-234.77703111l-79.23712 79.23712c-5.86979555 23.47804445-5.86979555 52.82474667 0 76.30279111zM396.07864889 143.69223111l79.23712 79.23825778c23.47804445 5.86865778 46.95608889 5.86865778 70.43299556 0l79.23825777-79.23825778c-61.62887111-64.5632-164.34517333-64.5632-228.90951111 0z m316.94961778 328.68920889l-79.23712-76.30279111c-64.56433778 64.5632-64.56433778 167.27950222 0 234.77703111l79.23712-79.23712c5.86979555-29.34670222 5.86979555-52.82474667 0-79.23712z m5.86979555 85.10577778l-79.23712 79.23825777c64.5632 64.56433778 167.27836445 64.56433778 234.77703111 0l-79.23712-79.23712c-23.47804445-11.73959111-52.82474667-11.73959111-76.30279111 0z m82.17144889-5.86865778l79.23825778 79.23712c64.5632-64.5632 64.5632-167.27836445 0-234.77703111l-79.23825778 79.23712c-5.86865778 23.47804445-5.86865778 46.95608889 0 76.30279111zM639.66094222 384.33905778l79.23712 79.23825777c23.47804445 5.86865778 46.95608889 5.86865778 70.43299556 0l79.23712-79.23825777c-64.5632-55.75907555-161.40970667-55.75907555-228.90723556 0z m-416.73045333 88.04238222l-79.23825778-76.30279111c-64.5632 64.5632-64.5632 167.27950222 0 234.77703111l79.23825778-79.23712c5.86865778-29.34670222 5.86865778-52.82474667 0-79.23712z m5.86865778 85.10577778l-79.23712 79.23825777c64.5632 64.56433778 167.27950222 64.56433778 234.77703111 0l-79.23712-79.23712c-23.47804445-11.73959111-52.82474667-11.73959111-76.30279111 0z m88.04124444-5.86865778l79.23825778 79.23712c64.5632-64.5632 64.5632-167.27836445 0-234.77703111l-79.23712 79.23712c-11.73959111 23.47804445-11.73959111 46.95608889 0 76.30279111zM149.56316445 384.33905778l79.23712 79.23825777c23.47804445 5.86865778 46.95608889 5.86865778 70.43299555 0l79.23825778-79.23825777c-55.76021333-55.75907555-161.40970667-55.75907555-228.90951111 0zM466.51164445 718.89806222l-79.23712-79.23712c-64.56433778 64.5632-64.56433778 167.27836445 0 234.77703111l79.23712-79.23712c11.73959111-23.47804445 11.73959111-52.82474667 0-76.30279111z m11.7395911 79.23712l-79.23825777 79.23712c64.56433778 64.56433778 167.27950222 64.56433778 234.77816889 0L554.55288889 798.13518222c-32.28216889-5.86979555-52.82588445-5.86979555-76.30279111 0z m79.23712-5.86979555l79.23712 79.23825778c64.56433778-64.56433778 64.56433778-167.27950222 0-234.7781689l-79.23712 79.23712c-5.86979555 26.41351111-5.86979555 49.89155555 0 76.30279112zM396.07864889 633.79114667l79.23712 79.23712c23.47804445 5.86979555 46.95608889 5.86979555 70.43299556 0l79.23825777-79.23712c-61.62887111-64.56433778-164.34517333-64.56433778-228.90951111 0z" fill="#9E0B0F" p-id="1284"></path></svg>