<svg class="icon" style="width: 1em; height: 1em;vertical-align: middle;fill: currentColor;overflow: hidden;" viewBox="0 0 1024 1024" version="1.1" xmlns="http://www.w3.org/2000/svg" p-id="853"><path d="M392.31786667 307.02826667c11.00586667 22.01066667 22.01066667 41.26933333 33.01653333 57.77706666 22.0096 35.76746667 44.02133333 66.03093333 68.78186667 96.29546667-27.51253333-8.25386667-49.5232-19.25866667-68.78186667-30.26453333-52.2752-30.26346667-77.0368-68.78186667-68.78293333-115.55413334-99.0464 27.51253333-192.59093333 79.78666667-272.37866667 156.82346667l96.29546667 77.0368c60.52906667-38.51733333 145.81866667-63.28 247.61706666-66.03093333h74.2848c-24.7616 5.50293333-49.5232 11.0048-74.2848 19.25866666-82.53866667 22.01066667-156.82453333 44.02133333-222.85546666 68.78293334l151.3216 123.808c-11.0048-66.03093333 8.25386667-66.03093333 27.51253333-96.29546667 8.25386667-16.50773333 22.01066667-27.51253333 44.02133333-44.02133333 22.01066667-13.75573333 46.77226667-27.51253333 77.0368-44.02026667-27.5136 38.5184-52.2752 79.78773333-77.0368 121.05813333-11.0048 19.25866667-22.01066667 38.51733333-30.26453333 57.77706667 96.29546667-41.26933333 184.33706667-33.01546667 264.1248 13.75573333L945.33013333 472.10666667C788.5056 320.78506667 582.15786667 265.76 392.31786667 307.02933333z m297.14133333 82.53866666c-11.00586667 24.7616-52.2752 52.2752-115.5552 66.03093334 38.5184-44.02133333 90.7936-96.29546667 88.04266667-126.56 19.25866667-2.75093333 38.51733333 38.5184 27.51253333 60.52906666z m-121.05706667-55.02613333c2.75093333 5.50293333 5.50186667 11.00586667 5.50186667 16.50773333v19.25973334c-2.752 27.51253333-22.0096 55.02613333-19.25866667 79.78666666 0 5.504-112.8032-79.78666667 13.7568-115.55413333z m71.53386667 330.1568c-41.26933333-38.5184-38.5184-93.54453333-66.032-123.808-11.0048-11.00586667-22.0096-19.25973333-44.02133333-22.01173333 13.7568-5.50186667 30.2656-8.25386667 44.02133333-8.25386667 68.78293333 0 121.05706667 60.52906667 66.032 154.0736z m192.59093333-118.30613333c-5.50293333-8.25386667-22.01066667-33.01546667-68.78293333-46.77333334-38.51733333-11.00373333-96.29546667-16.50666667-187.088-13.75573333 0 0-5.504 0 0-2.752h2.75093333c52.2752-11.0048 236.61226667-44.02026667 255.87093334 27.5136v27.5136c-2.752 2.752-2.752 5.50186667-2.752 8.25386667z" fill="#04017C" p-id="854"></path><path d="M499.6192 485.8624H425.33333333c-145.81973333 5.50293333-253.12 49.5232-313.64906666 123.808 88.04266667-38.51733333 192.59093333-74.2848 313.64906666-104.54826667 22.0096-5.504 49.5232-11.00586667 74.2848-19.25973333zM381.312 601.41866667c-24.7616 41.26933333-46.77226667 30.26453333-16.50773333 156.82346666 19.25866667-44.02133333 38.51733333-85.29066667 60.52906666-121.056 24.7616-44.02133333 49.5232-85.29066667 77.03573334-121.05813333-30.26453333 16.50773333-57.77706667 30.26453333-77.03573334 44.02133333-19.25973333 11.0048-33.01653333 24.7616-44.02133333 41.26933334z m41.26933333-167.82933334c19.25973333 11.0048 44.02133333 22.0096 68.78293334 30.26346667-24.7616-30.26346667-46.77226667-60.528-68.78293334-96.29546667-19.25866667-33.01546667-38.51733333-66.03093333-52.27413333-101.79733333-35.76746667 71.53386667-19.25973333 126.56 52.27413333 167.82933333z m151.3216 19.25866667c66.032-11.0048 104.54933333-38.51733333 115.5552-63.28 11.0048-22.01066667-11.00586667-60.528-30.26453333-63.28 5.50293333 30.26453333-46.77226667 82.53866667-85.29066667 126.56z m2.752 27.5136h-2.752c-5.50186667 2.75093333 0 2.75093333 0 2.75093333 90.7936 0 148.57066667 2.752 187.08906667 13.7568 49.5232 13.75573333 66.03093333 38.51733333 68.78186667 46.7712 0-2.75093333 0-5.50186667 2.752-8.25386666v-27.51253334c-19.25973333-71.53386667-200.8448-38.51733333-255.872-27.51253333z m-2.752 30.26346667c-13.75573333 0-30.26453333 2.752-44.02133333 8.25386666 22.01173333 2.752 33.01653333 11.00586667 44.02133333 22.01066667 27.5136 30.26453333 24.7616 88.04266667 66.032 123.808 55.02506667-93.54346667 2.75093333-154.07253333-66.032-154.07253333z m-19.25866666-57.77706667c-5.50293333-24.7616 13.7568-52.27413333 19.25866666-79.78666667v-19.25973333c0-5.50293333-2.752-11.00586667-5.50186666-16.50773333-126.56 33.01546667-13.7568 118.30506667-13.7568 115.55413333z" fill="#FFF100" p-id="855"></path></svg>