<svg class="icon" style="width: 1em; height: 1em;vertical-align: middle;fill: currentColor;overflow: hidden;" viewBox="0 0 1024 1024" version="1.1" xmlns="http://www.w3.org/2000/svg" p-id="1311"><path d="M331.78986667 543.63946667L296.02133333 510.624l35.76746667-33.01546667 332.90666667-321.90186666c-85.2896-77.0368-225.6064-77.0368-308.14506667 2.752l-209.09866667 200.84373333c-85.29066667 82.53866667-85.29066667 217.3536 0 299.89226667l176.0832 173.33226666 151.3216-148.57066666-143.06773333-140.3168z" fill="#C7161E" p-id="1312"></path><path d="M876.5472 359.3024l-176.0832-167.82933333-151.3216 148.57066666 143.06773333 140.3168 35.76746667 33.01546667-35.76746667 33.01546667-332.90666666 321.90186666c85.2896 77.0368 222.8544 77.0368 308.14506666-2.752l209.09866667-200.84373333c85.29066667-88.04266667 85.29066667-220.10453333 0-305.3952z" fill="#C7161E" p-id="1313"></path><path d="M653.69173333 510.624L510.624 370.30826667 364.80533333 510.624 513.376 650.9408z" fill="#BB864F" p-id="1314"></path></svg>