<svg class="icon" style="width: 1em; height: 1em;vertical-align: middle;fill: currentColor;overflow: hidden;" viewBox="0 0 1024 1024" version="1.1" xmlns="http://www.w3.org/2000/svg" p-id="544"><path d="M84.1728 510.624a145.81866667 145.81866667 0 1 0 291.63733333 0 145.81866667 145.81866667 0 1 0-291.63733333 0z" fill="#E59628" p-id="545"></path><path d="M406.07466667 485.8624c16.50773333 5.50293333 30.26453333 16.50773333 30.26453333 30.26453333s-11.0048 24.7616-30.26453333 30.26453334v-60.52906667z m-154.07253334-33.01546667c-16.50773333-41.26933333 30.26453333-57.77706667 33.01546667-33.01546666 2.752-22.01066667 52.2752-8.25386667 33.01546667 33.01546666l-33.01546667 60.52906667-33.01546667-60.52906667z m0 126.56c-16.50773333 41.26933333 30.26453333 57.77706667 33.01546667 33.01546667 2.752 22.01066667 52.2752 8.25386667 33.01546667-33.01546667l-33.01546667-60.52906666-33.01546667 60.52906666z m118.30613334-99.0464c5.50186667 0 11.0048 0 19.25866666 2.75093334v71.53386666c-5.50293333 0-11.0048 2.752-19.25866666 2.752v-77.0368z m-13.7568 74.2848c-5.50293333 0-11.0048-2.752-16.50773334-2.752v-68.78186666c5.50293333-2.752 11.0048-2.752 16.50773334-2.752v74.28586666z m-27.51253334-8.25386666v-57.77706667c-13.7568 5.50186667-22.01066667 16.50773333-22.01066666 27.51253333s8.25386667 24.7616 22.01066666 30.26453334z m-85.29066666-55.02613334c-8.25386667 0-16.50773333 5.50293333-22.01066667 16.50773334-19.25866667-5.50293333-49.5232-38.51733333-49.5232-38.51733334h-2.752c-2.75093333 0 11.00586667 13.75573333 27.5136 27.51253334 8.25386667 5.50186667 19.25866667 13.75573333 24.7616 16.50773333v8.25386667c-5.50293333 2.752-13.7568 8.25386667-24.7616 16.50773333-16.50773333 13.7568-30.26453333 27.51253333-27.51253333 27.51253333h2.75093333s30.26453333-33.01546667 49.5232-38.51733333c2.752 8.2528 11.0048 13.75573333 19.25973333 13.75573333 11.0048 0 22.0096-11.0048 22.0096-24.7616 2.752-13.7568-5.50186667-24.7616-19.25866666-24.7616z" fill="#FFFFFF" p-id="546"></path><path d="M579.40693333 565.65013333c0 13.7568-8.25386667 19.25973333-24.7616 19.25973334-11.00586667 0-13.7568-5.50293333-16.50773333-13.7568 0-5.50293333 2.752-11.0048 5.50186667-11.0048 2.752-2.752 5.504-2.752 13.7568-2.752 11.00586667-2.752 19.25973333-2.752 19.25973333-8.25386667v16.50773333h2.75093333z m52.2752-60.528c0-27.5136-24.76266667-41.26933333-71.53386666-41.26933333-38.5184 2.75093333-63.28 13.75573333-66.032 35.76533333 0 11.00586667 5.50293333 19.25973333 16.50773333 19.25973334 5.50293333 0 11.00586667-2.75093333 19.25973333-8.25386667 8.25386667-8.25386667 16.50773333-11.0048 24.7616-11.0048 13.7568 0 19.25866667 5.50293333 19.25866667 13.7568s-8.25386667 13.75573333-27.51253333 13.75573333c-44.02133333 2.752-68.78293333 19.25973333-68.78293334 44.02133334 0 27.51253333 16.50773333 41.26933333 49.5232 41.26933333 22.01066667 0 38.5184-5.50293333 46.77333334-19.25866667 2.75093333 13.75573333 11.0048 19.25866667 24.76053333 19.25866667 16.50773333 0 24.7616-5.50293333 24.7616-16.50773333v-24.7616c8.25493333 2.752 8.25493333-66.03093333 8.25493333-66.03093334z m99.0464 85.29066667c0 16.50666667 8.25386667 24.76053333 24.7616 24.76053333s24.7616-8.25386667 24.7616-24.7616v-71.53386666c0-35.7664-16.50773333-57.77706667-46.77226666-57.77706667-19.25866667 0-33.01546667 8.25386667-41.26933334 27.5136-2.752-19.25973333-8.25386667-27.5136-22.01066666-27.5136-16.50773333 0-22.0096 8.25386667-22.0096 27.5136v99.0464c0 16.50773333 8.25386667 24.7616 24.7616 24.7616s24.7616-8.25386667 24.7616-24.7616v-49.5232c0-19.25973333 5.50186667-27.5136 16.50773333-27.5136 11.0048 0 19.25866667 8.25386667 19.25866667 24.7616v52.2752h-2.752z m132.06186667-74.28586667v-79.78773333c0-19.25866667-8.25386667-30.26453333-22.0096-30.26453333-16.50773333 0-24.7616 11.00586667-24.7616 30.26453333v151.3216c0 16.50773333 8.25386667 24.7616 24.7616 24.7616s22.0096-8.25386667 22.0096-24.7616v-13.7568l11.00586667-11.0048 13.7568 27.51253333c5.50186667 11.00586667 11.0048 16.50773333 13.75573333 19.25973334s8.25386667 2.752 13.7568 2.752c16.50773333 0 24.7616-8.25493333 24.7616-22.01173334 0-5.50186667-2.752-13.75573333-8.25386667-24.7616l-24.7616-38.51733333 16.50773334-19.25973333c5.50293333-5.50293333 8.25386667-11.0048 8.25386666-19.25866667 0-13.7568-8.25386667-22.01066667-22.01066666-24.76266667-8.25386667 0-13.75573333 2.752-19.25866667 11.00586667l-27.5136 41.26933333zM472.10666667 571.15306667c0-27.5136-11.0048-46.77226667-30.26346667-52.2752 16.50773333-5.50186667 30.26346667-30.26346667 30.26346667-52.27413334 0-52.2752-49.5232-49.5232-57.77706667-49.5232h-85.29066667v203.59573334h85.29066667c5.50293333-5.50293333 57.77706667 2.752 57.77706667-49.5232z m-66.03093334-85.29066667c16.50773333 5.50293333 30.26453333 16.50773333 30.26453334 30.26453333s-11.0048 24.7616-30.26453334 30.26453334v-60.52906667z m-35.7664-5.50186667c5.50186667 0 11.0048 0 19.25866667 2.75093334v71.53386666c-5.50293333 0-11.0048 2.752-19.25866667 2.752v-77.0368z m-13.7568 74.2848c-5.50293333 0-11.0048-2.752-16.50773333-2.752v-68.78186666c5.50293333-2.752 11.0048-2.752 16.50773333-2.752v74.28586666z" fill="#009844" p-id="547"></path></svg>