<svg class="icon" style="width: 1em; height: 1em;vertical-align: middle;fill: currentColor;overflow: hidden;" viewBox="0 0 1024 1024" version="1.1" xmlns="http://www.w3.org/2000/svg" p-id="985"><path d="M629.36 588.09l-5.158-64.483-116.071-33.531 54.166-105.754-54.166-49.007-103.174 56.745-38.69-110.911h-67.063l-28.373 118.65-110.912-54.167-46.428 51.587 59.325 103.174-116.07 41.27 5.158 67.062 116.07 36.111-51.586 103.174 49.007 49.008 105.754-61.905 36.11 113.492h23.215l46.428-2.58 33.531-113.491 103.174 51.587 51.587-54.166L513.29 629.36l116.07-41.27zM528.766 735.114c2.58 2.58 0 5.159-2.58 2.58L366.267 603.567c-2.58-2.58-12.897-2.58-12.897 5.158l2.58 206.348c0 7.738-5.16 7.738-5.16 0l-10.316-108.332-7.738-92.857c-2.58-7.738-5.16-10.317-10.318-7.738L180.554 745.431c-2.58 2.58-7.738 0-2.58-2.58l118.65-152.181c5.16-7.738 2.58-12.897-5.158-12.897l-198.61-2.579c-2.579 0-2.579-2.58 0-2.58l201.19-20.634c7.737 0 10.317-7.738 5.158-12.897L159.919 389.481c-2.579-5.159 0-5.159 2.58-2.58l154.76 134.127c7.738 5.158 15.477 2.58 15.477-5.159l7.738-203.768c0-2.58 2.579-2.58 2.579 0l2.58 33.531 12.896 170.237c0 7.738 7.738 10.317 12.897 5.159L510.71 381.743c2.58-2.58 5.159 0 2.58 2.58L389.48 539.082c-2.58 2.58-2.58 12.897 5.159 12.897l201.189 5.159c2.58 0 2.58 2.579 0 2.579L389.48 577.773c-5.159 0-7.738 7.738-5.159 12.897l144.444 144.443z" fill="#F08300" p-id="986"></path><path d="M967.254 379.164l-7.738-49.008-90.277-15.476 33.532-82.539-43.85-30.952-74.8 51.587-36.11-79.96-51.588 5.159-10.317 90.277-87.698-36.11-30.952 41.269 51.587 72.221-82.54 38.69 7.739 49.008 90.277 20.635-30.952 79.96 41.27 33.53 74.8-54.165 33.532 72.221v12.897l51.587-7.738 15.476-87.698 82.539 30.952 33.531-43.848-51.587-72.222 82.54-38.69z m-64.483 118.65c2.58 2.579 0 5.158-2.58 2.579l-128.967-90.277c-2.58-2.58-10.317 0-7.738 5.159l15.476 154.76c0 5.159-2.58 5.159-5.158 0L748.01 435.91l-2.58-12.896c-2.579-7.738-5.158-7.738-7.737-5.16l-95.436 113.492c-2.58 2.58-5.159 0-2.58-2.58l79.96-123.808c2.58-5.159 0-10.317-5.158-10.317l-149.602 12.897c-2.58 0-2.58-2.58 0-2.58l149.602-30.952c7.738-2.58 7.738-7.738 2.579-10.317l-118.65-98.015c-2.58-2.58 0-5.16 2.58-2.58l123.808 87.698c7.738 5.159 12.897 2.58 10.317-5.159l-10.317-154.76s2.58-2.58 2.58 0L748.01 312.1l5.159 30.952c0 5.159 7.738 7.738 10.317 2.58l95.436-113.492c0-2.58 2.58 0 2.58 2.58l-79.96 123.808c-2.58 2.58 0 10.317 5.158 7.738l152.182-10.317c2.579 0 2.579 2.579 0 2.579L786.7 386.902c-5.158 0-5.158 7.738-2.58 10.317l118.65 100.595z" fill="#FDD000" p-id="987"></path></svg>