<svg class="icon" style="width: 1em; height: 1em;vertical-align: middle;fill: currentColor;overflow: hidden;" viewBox="0 0 1024 1024" version="1.1" xmlns="http://www.w3.org/2000/svg" p-id="1000"><path d="M99.67160889 340.31843555l228.90837333-225.97404444h314.01528889L880.30776889 334.44977778v296.40590222s-79.23825778 38.15196445-149.67125334 20.54371555c-76.30279111-20.54371555-105.64949333-49.89041778-105.64949333-49.89041777V337.38410667h-267.0592v314.01528888s129.1264-61.62887111 208.36465778-32.28216888c82.17258667 32.28216889 170.21383111 102.71516445 264.12373333 79.23712 99.78197333-23.47690667 99.78197333-61.62887111 99.78197334-61.62887112v220.1042489s-93.91217778 55.76021333-187.82208 46.95608888c-93.91217778-8.80412445-126.19320889-49.89155555-196.62734222-67.49866666s-90.97671111-11.73959111-134.99733334 0c-44.02062222 11.73845333-93.90990222 38.15082667-93.90990222 38.15082666L99.67160889 660.20352V340.31843555z" fill="#D9353A" p-id="1001"></path></svg>